<svg xmlns="http://www.w3.org/2000/svg" width="829.652" height="613.783" viewBox="0 0 829.652 613.783">
  <defs>
    <style>
      .cls-1 {
        fill: #ffb8b8;
      }

      .cls-2 {
        fill: #2f2e41;
      }

      .cls-3 {
        fill: #3f3d56;
      }

      .cls-4 {
        fill: #f50;
      }

      .cls-5 {
        fill: #fff;
      }

      .cls-6 {
        fill: #e6e6e6;
      }

      .cls-7 {
        fill: #e84d0a;
      }

      .cls-8 {
        fill: #f0c1aa;
      }

      .cls-9 {
        fill: #6c63ff;
      }
    </style>
  </defs>
  <g id="profile" transform="translate(0 0)">
    <path id="Path_6" data-name="Path 6" class="cls-1" d="M609.4,522.909H591.573V349.531l40.509-.81Z" transform="translate(0 64.928)"/>
    <path id="Path_7" data-name="Path 7" class="cls-1" d="M695.276,522.909H713.1V349.531l-40.509-.81Z" transform="translate(0 64.928)"/>
    <path id="Path_8" data-name="Path 8" class="cls-2" d="M786.208,722.6l-37.924-.348A12.327,12.327,0,0,1,733,710.283h0a12.327,12.327,0,0,1,6.984-11.109l8.651-4.161L776.748,675.8,797,681.469l3.879,17.457A19.931,19.931,0,0,1,786.208,722.6Z" transform="translate(-185.174 -110.645)"/>
    <path id="Path_9" data-name="Path 9" class="cls-2" d="M888.29,722.383l-37.924-.348a12.327,12.327,0,0,1-15.285-11.967h0a12.327,12.327,0,0,1,6.984-11.109l8.651-4.161,28.115-19.215,20.254,5.671,3.879,17.457A19.931,19.931,0,0,1,888.29,722.383Z" transform="translate(-185.174 -110.645)"/>
    <path id="Path_10" data-name="Path 10" class="cls-2" d="M903.116,553.521l-55.842-4.986-7.352-65.5-16.465,63.373-56.451-5.04c2.081-38.806,6.559-71.177,17.014-87.5L902.306,432.8Z" transform="translate(-185.174 -136.563)"/>
    <circle id="Ellipse_3" data-name="Ellipse 3" class="cls-1" cx="30.173" cy="30.173" r="30.173" transform="translate(631.334 14.266)"/>
    <path id="Path_11" data-name="Path 11" class="cls-1" d="M870.709,282.922l-52.661-6.481c6.7-14.267,9.719-27.589,4.861-38.889h40.509C857.155,248.727,862.755,265.29,870.709,282.922Z" transform="translate(-185.174 -175.573)"/>
    <path id="Path_12" data-name="Path 12" class="cls-3" d="M902.306,434.425c-37.055,27.17-77.5,36.44-121.526,26.736,26.715-60.992,22.9-121.105,0-180.67l42.129-17.824c11.813,11.523,25.36,11.774,40.509,1.62l41.319,8.912C897.179,332.621,894.645,387.814,902.306,434.425Z" transform="translate(-185.174 -159.259)"/>
    <path id="Path_13" data-name="Path 13" class="cls-2" d="M824.422,193.674l-5.095-2.04s10.653-11.728,25.475-10.709l-4.169-4.589s10.19-4.079,19.453,6.629c4.87,5.629,10.5,12.246,14.016,19.7h5.456l-2.277,5.014,7.971,5.014-8.181-.9a27.748,27.748,0,0,1-.774,12.987l.219,3.963s-9.483-14.672-9.483-16.712v5.1s-5.095-4.589-5.095-7.649l-2.779,3.57-1.39-5.609-17.138,5.609,2.779-4.589-10.653,1.53,4.169-5.609s-12.043,6.629-12.506,12.238-6.484,12.748-6.484,12.748l-2.779-5.1S810.99,201.323,824.422,193.674Z" transform="translate(-185.174 -175.573)"/>
    <path id="Path_14" data-name="Path 14" class="cls-4" d="M909.7,498.573h-183a7.008,7.008,0,0,1-7-7v-28a7.008,7.008,0,0,1,7-7h183a7.009,7.009,0,0,1,7,7v28a7.008,7.008,0,0,1-7,7Z" transform="translate(-185.174 -139.577)"/>
    <path id="Path_40" data-name="Path 40" class="cls-5" d="M754.055,471.627a5.946,5.946,0,1,0,0,11.893H882.14a5.947,5.947,0,1,0,.2-11.892q-.1,0-.2,0Z" transform="translate(-185.174 -139.775)"/>
    <path id="Path_15" data-name="Path 15" class="cls-1" d="M799.414,449.818l9.3,16.582a14.724,14.724,0,0,1-9.125,21.451h0a14.724,14.724,0,0,1-18.437-14.53l.436-22.692c-6.989-40.336-12.661-78.527-11.343-105.323h32.407l-6.482,30.787Z" transform="translate(-185.174 -148.418)"/>
    <path id="Path_16" data-name="Path 16" class="cls-1" d="M906.357,453.869l-6.813,11.356a13.12,13.12,0,0,1-21.861.967h0a13.12,13.12,0,0,1,2.985-18.393l11.917-8.512L909.6,368.8l-10.532-29.166,29.167-4.861C941.926,366.423,928.132,408.615,906.357,453.869Z" transform="translate(-185.174 -150.486)"/>
    <path id="Path_17" data-name="Path 17" class="cls-3" d="M809.946,351.787l-42.939-2.431,2.95-46.01a29.012,29.012,0,0,1,21.581-28.705l5.446-1.442Z" transform="translate(-185.174 -162.094)"/>
    <path id="Path_18" data-name="Path 18" class="cls-3" d="M931.473,337.2l-39.7,9.722V270.769l1.638-.106a27.257,27.257,0,0,1,28.407,21.489Z" transform="translate(-185.174 -162.515)"/>
    <rect id="Rectangle_5" data-name="Rectangle 5" class="cls-6" width="606.096" height="2" transform="translate(223.556 611.782)"/>
    <path id="Path_19" data-name="Path 19" class="cls-6" d="M211.812,663.409A215.892,215.892,0,0,0,221.9,723.088c.14.448.288.89.435,1.338h37.636c-.04-.4-.08-.85-.12-1.338-2.509-28.849-16.978-204.433.321-234.46C258.656,491.064,208.894,571.742,211.812,663.409Z" transform="translate(-185.174 -110.645)"/>
    <path id="Path_20" data-name="Path 20" class="cls-6" d="M214.636,723.089c.315.448.642.9.977,1.338h28.233c-.214-.381-.462-.83-.749-1.338-4.664-8.419-18.47-33.587-31.285-59.679-13.772-28.039-26.407-57.143-25.343-67.676C186.141,598.109,176.612,670.53,214.636,723.089Z" transform="translate(-185.174 -110.645)"/>
    <path id="Path_21" data-name="Path 21" class="cls-7" d="M567.057,399.892h-307a7.008,7.008,0,0,1-7-7v-171a7.008,7.008,0,0,1,7-7h307a7.009,7.009,0,0,1,7,7v171a7.008,7.008,0,0,1-7,7Z" transform="translate(-185.174 -175.573)"/>
    <path id="Path_22" data-name="Path 22" class="cls-6" d="M570.855,789.355h-315c-2.76,0-5-2.525-5-5.637V220.088c0-3.111,2.24-5.633,5-5.637h315c2.76,0,5,2.525,5,5.637V783.719C575.852,786.83,573.615,789.352,570.855,789.355Zm-315-572.65a3.212,3.212,0,0,0-3,3.382V783.719a3.212,3.212,0,0,0,3,3.382h315a3.212,3.212,0,0,0,3-3.382V220.088a3.212,3.212,0,0,0-3-3.382Z" transform="translate(-185.174 -175.573)"/>
    <circle id="Ellipse_4" data-name="Ellipse 4" class="cls-6" cx="11" cy="11" r="11" transform="translate(96.883 331.714)"/>
    <path id="Path_23" data-name="Path 23" class="cls-8" d="M525.057,502.892h-183a7.008,7.008,0,0,1-7-7v-28a7.008,7.008,0,0,1,7-7h183a7.009,7.009,0,0,1,7,7v28a7.009,7.009,0,0,1-7,7Z" transform="translate(-185.174 -139.024)"/>
    <path id="Path_24" data-name="Path 24" class="cls-3" d="M532.057,503.892h-197a1,1,0,0,1,0-2h197a1,1,0,0,1,0,2Z" transform="translate(-185.174 -136.829)"/>
    <circle id="Ellipse_5" data-name="Ellipse 5" class="cls-6" cx="11" cy="11" r="11" transform="translate(96.883 405.847)"/>
    <path id="Path_25" data-name="Path 25" class="cls-8" d="M525.057,568.892h-183a7.008,7.008,0,0,1-7-7v-28a7.008,7.008,0,0,1,7-7h183a7.008,7.008,0,0,1,7,7v28a7.009,7.009,0,0,1-7,7Z" transform="translate(-185.174 -130.569)"/>
    <path id="Path_26" data-name="Path 26" class="cls-3" d="M532.057,569.892h-197a1,1,0,0,1,0-2h197a1,1,0,0,1,0,2Z" transform="translate(-185.174 -128.993)"/>
    <circle id="Ellipse_6" data-name="Ellipse 6" class="cls-6" cx="11" cy="11" r="11" transform="translate(96.883 479.981)"/>
    <path id="Path_27" data-name="Path 27" class="cls-8" d="M418.057,634.892h-76a7.008,7.008,0,0,1-7-7v-28a7.008,7.008,0,0,1,7-7h76a7.009,7.009,0,0,1,7,7v28a7.008,7.008,0,0,1-7,7Z" transform="translate(-185.174 -122.114)"/>
    <path id="Path_28" data-name="Path 28" class="cls-3" d="M425.057,635.892h-90a1,1,0,0,1,0-2h90a1,1,0,0,1,0,2Z" transform="translate(-185.174 -110.645)"/>
    <path id="Path_29" data-name="Path 29" class="cls-8" d="M525.057,634.892h-76a7.008,7.008,0,0,1-7-7v-28a7.008,7.008,0,0,1,7-7h76a7.008,7.008,0,0,1,7,7v28A7.008,7.008,0,0,1,525.057,634.892Z" transform="translate(-185.174 -122.114)"/>
    <path id="Path_30" data-name="Path 30" class="cls-3" d="M532.057,635.892h-90a1,1,0,0,1,0-2h90a1,1,0,0,1,0,2Z" transform="translate(-185.174 -110.645)"/>
    <path id="Path_40-2" data-name="Path 40" class="cls-5" d="M293.417,268.446a5.946,5.946,0,1,0,0,11.893H533.5a5.947,5.947,0,1,0,.2-11.892q-.1,0-.2,0Z" transform="translate(-185.174 -175.573)"/>
    <path id="Path_40-3" data-name="Path 40" class="cls-5" d="M293.417,301.446a5.946,5.946,0,1,0,0,11.893H533.5a5.947,5.947,0,1,0,.2-11.892q-.1,0-.2,0Z" transform="translate(-185.174 -160.353)"/>
    <path id="Path_40-4" data-name="Path 40" class="cls-5" d="M293.417,334.446a5.946,5.946,0,1,0,0,11.893H533.5a5.947,5.947,0,1,0,.2-11.892q-.1,0-.2,0Z" transform="translate(-185.174 -156.363)"/>
    <path id="Path_31" data-name="Path 31" class="cls-9" d="M522.854,684.189l-2.517-2.517a.584.584,0,0,0-.414-.171H518.7a.585.585,0,0,0-.413,1l1.393,1.392H508.557a1,1,0,0,0,0,2h11.122l-1.251,1.25a.668.668,0,0,0,.472,1.14h.989a.668.668,0,0,0,.472-.2l2.492-2.492a.994.994,0,0,0,0-1.406Z" transform="translate(-185.174 -110.645)"/>
    <path id="Path_32" data-name="Path 32" class="cls-3" d="M516.057,700.892a16,16,0,1,1,16-16,16,16,0,0,1-16,16Zm0-30a14,14,0,1,0,14,14,14,14,0,0,0-14-14Z" transform="translate(-185.174 -110.645)"/>
  </g>
</svg>
