<svg xmlns="http://www.w3.org/2000/svg" xmlns:xlink="http://www.w3.org/1999/xlink" width="528.631" height="436.292" viewBox="0 0 528.631 436.292">
  <defs>
    <style>
      .cls-1, .cls-6 {
        fill: #0b168f;
      }

      .cls-2 {
        fill: #f2f2f2;
      }

      .cls-3 {
        opacity: 0.7;
      }

      .cls-4 {
        fill: url(#linear-gradient);
      }

      .cls-5 {
        fill: #6c63ff;
      }

      .cls-6, .cls-8 {
        opacity: 0.1;
      }

      .cls-7 {
        fill: #f50;
      }

      .cls-9 {
        fill: #eee;
      }

      .cls-10, .cls-12 {
        fill: none;
        stroke-miterlimit: 10;
      }

      .cls-10 {
        stroke: #e0e0e0;
        stroke-width: 8px;
      }

      .cls-11 {
        fill: #39447a;
      }

      .cls-12 {
        stroke: #bdbdbd;
        stroke-width: 5px;
      }

      .cls-13 {
        fill: #b84733;
      }

      .cls-14 {
        fill: #535461;
      }

      .cls-15 {
        fill: #f77f44;
      }

      .cls-16 {
        opacity: 0.05;
      }

      .cls-17 {
        fill: #fcbea2;
      }

      .cls-18 {
        fill: #333;
      }

      .cls-19 {
        fill: #e0e0e0;
      }

      .cls-20 {
        fill: #3e3f49;
      }

      .cls-21 {
        fill: #fefefe;
        font-size: 15px;
        font-family: SegoeUI-BoldItalic, Segoe UI;
        font-weight: 700;
        font-style: italic;
        letter-spacing: 0.1em;
      }
    </style>
    <linearGradient id="linear-gradient" x1="0.5" y1="1" x2="0.5" gradientUnits="objectBoundingBox">
      <stop offset="0" stop-color="gray" stop-opacity="0.251"/>
      <stop offset="0.535" stop-color="gray" stop-opacity="0.122"/>
      <stop offset="1" stop-color="gray" stop-opacity="0.102"/>
    </linearGradient>
  </defs>
  <g id="register-man-orange" transform="translate(0 0)">
    <path id="Path_1" data-name="Path 1" class="cls-1" d="M236.994,634.934c0,26.379-15.683,35.591-35.026,35.591-.45,0-.9,0-1.341-.017-.9-.019-1.784-.058-2.661-.122-17.459-1.234-31.021-10.92-31.021-35.453,0-25.386,32.436-57.42,34.883-59.8h0c.093-.093.141-.139.141-.139S236.994,608.553,236.994,634.934Z" transform="translate(-156.949 -283.965)"/>
    <path id="Path_2" data-name="Path 2" class="cls-2" d="M214.752,666.487l12.812-17.9L214.719,668.45l-.034,2.055c-.9-.019-1.784-.058-2.661-.122l1.38-26.391-.01-.2.025-.039.129-2.493L200.673,621.34l12.915,18.046.031.528,1.044-19.942-11.021-20.578L214.8,616.473l1.086-41.338,0-.141v.139l-.18,32.6,10.972-12.924-11.021,15.731-.292,17.854,10.246-17.133-10.29,19.762-.159,9.925L230.041,617.1l-14.928,27.314Z" transform="translate(-171.01 -283.964)"/>
    <g id="Group_1" data-name="Group 1" class="cls-3" transform="translate(454.538 159.718)">
      <path id="Path_3" data-name="Path 3" class="cls-4" d="M961.077,356.156V349.8H929.312v29.383a6.194,6.194,0,0,0,6.194,6.194h19.377a6.194,6.194,0,0,0,6.194-6.194v-6.51a8.259,8.259,0,1,0,0-16.518Zm0,13.341V359.331a5.082,5.082,0,1,1,0,10.165Z" transform="translate(-929.312 -349.8)"/>
    </g>
    <path id="Path_4" data-name="Path 4" class="cls-5" d="M976.644,362.4a7.541,7.541,0,1,0,7.541,7.541A7.541,7.541,0,0,0,976.644,362.4Zm0,12.181a4.64,4.64,0,1,1,4.64-4.64,4.64,4.64,0,0,1-4.64,4.64Z" transform="translate(-491.363 -195.335)"/>
    <path id="Path_5" data-name="Path 5" class="cls-6" d="M976.644,362.4a7.541,7.541,0,1,0,7.541,7.541A7.541,7.541,0,0,0,976.644,362.4Zm0,12.181a4.64,4.64,0,1,1,4.64-4.64,4.64,4.64,0,0,1-4.64,4.64Z" transform="translate(-491.363 -195.335)"/>
    <path id="Path_6" data-name="Path 6" class="cls-7" d="M782.493,276.563h29v26.8a5.685,5.685,0,0,1-5.685,5.685H788.178a5.685,5.685,0,0,1-5.685-5.685Z" transform="translate(-326.215 -115.297)"/>
    <path id="Path_7" data-name="Path 7" class="cls-8" d="M969.038,352.455v26.828a5.656,5.656,0,0,1-5.656,5.656h2.9a5.656,5.656,0,0,0,5.656-5.656V352.455Z" transform="translate(-488.978 -191.189)"/>
    <path id="Path_8" data-name="Path 8" class="cls-9" d="M941.117,314.842a1.691,1.691,0,0,0-1.283.65c-.381.69.309,1.467.938,1.941a12.462,12.462,0,0,1,3.177,2.958,3.708,3.708,0,0,1,.175,4.1c-1.128,1.529-3.818,1.858-4.078,3.74-.167,1.208.875,2.239,1.936,2.846,2.612,1.5,5.98,1.9,7.872,4.237a6.1,6.1,0,0,1,4.279-2.938c1.745-.4,3.557-.368,5.328-.637a1.842,1.842,0,0,0,1.47-.78c.494-1-.915-2.208-.429-3.216.37-.767,1.458-.707,2.253-1.015a2.931,2.931,0,0,0,1.458-3.5,6.607,6.607,0,0,0-2.495-3.24,27.931,27.931,0,0,0-10.048-4.644,25.815,25.815,0,0,0-5.341-1.236A26.9,26.9,0,0,0,941.117,314.842Z" transform="translate(-479.115 -175.199)"/>
    <line id="Line_1" data-name="Line 1" class="cls-10" x1="60.643" y2="188.927" transform="translate(197.795 200.598)"/>
    <g id="Group_2" data-name="Group 2" class="cls-3" transform="translate(111.591 0)">
      <path id="Path_9" data-name="Path 9" class="cls-4" d="M535.01,486.7c-7.46.433-14.1,6.682-14.1,6.682l-3.214-7.971-.262.085c1.57-6.872,33.509-148.529,1.536-160.741-24.568-9.384-50.628-21-71.045-20.56V270.726h28.624v-1.192h22.661c4.344-3.1-1.968-5.236-9.022-6.57a6.445,6.445,0,0,0,.758-1.066l36.294-65.116s8.349-13.716,2.981-20.275-13.12,16.7-13.12,16.7L487.28,236.139s-30.094-31.365-49.237-46.964a33.509,33.509,0,0,0-7.126-5.386c-3.495-2.364-6.14-3.589-7.444-3.109-.013,0-.024.013-.037.018a33.4,33.4,0,0,0-8.908-1.211h-2.385v-4.893A38.257,38.257,0,0,0,435.774,152.2a42.975,42.975,0,0,0,3.405-37.417,2.483,2.483,0,0,0,1-.35c1.08-.7,1.187-2.216,1.083-3.5a26.563,26.563,0,0,0-13.484-20.766c-3.022-1.652-6.482-2.791-8.71-5.416-1.914-2.256-2.719-5.412-5.036-7.253-2.752-2.187-6.728-1.811-10.105-.835a36.77,36.77,0,0,0-10.547,4.977c-3.653,2.5-6.95,5.714-11.155,7.1-2.988.984-6.229.964-9.236,1.889a15.511,15.511,0,0,0-9.981,9.734,20.264,20.264,0,0,0-.854,7.608,42.7,42.7,0,0,0-4.283,9.745c-.225.121-.451.24-.674.366l.654-.292a42.927,42.927,0,0,0,12.095,43.785A38.224,38.224,0,0,0,388.286,174.6v5.92a45.093,45.093,0,0,0-14.636,5.994l-.006-.008s-.381.233-1.032.673l-.2.132c-4.413,2.995-19.2,13.936-18.7,25.763q-.029.682.008,1.368a45.467,45.467,0,0,0-1.218,10.428v85.816a42.144,42.144,0,0,0,9.045,26.138c-12.444,2.789-20.375,7.008-20.375,11.729a3.819,3.819,0,0,1,0,1.192c0,8.4,25.1,15.206,56.055,15.206,3.743,0,7.4-.1,10.937-.292l34.981,28.318-56.055,90.047S368.61,497.334,382.92,502.1s43.533,8.349,43.533,8.349,4.77-8.349-1.789-11.927-15.5-1.789-15.5-1.789l1.192-7.156s97.2-83.486,76.927-112.111c-3.879-5.476-7.755-11.126-11.67-16.689l15.3,1.394,3.482,131.058.436-.142c-.875,2.574-7.056,22.006,6.647,18.718,14.67-3.52,41.362-15.938,41.362-15.938S542.469,486.263,535.01,486.7ZM476.544,261.184l-28.624-8.31V228.383l31.111,33.025C477.5,261.258,476.544,261.184,476.544,261.184Z" transform="translate(-341.176 -75.892)"/>
    </g>
    <circle id="Ellipse_1" data-name="Ellipse 1" cx="41.984" cy="41.984" r="41.984" transform="translate(128.406 15.753)"/>
    <path id="Path_10" data-name="Path 10" class="cls-11" d="M506.063,306.485,538.1,340.5a6.26,6.26,0,0,0,10.024-1.244l35.489-63.672-9.913-3.5-29.155,41.984s-54.735-57.05-62.393-54.229S506.063,306.485,506.063,306.485Z" transform="translate(-287.859 -152.535)"/>
    <line id="Line_2" data-name="Line 2" class="cls-12" x1="47.232" y2="122.453" transform="translate(109.746 271.737)"/>
    <line id="Line_3" data-name="Line 3" class="cls-12" x2="47.232" y2="122.453" transform="translate(180.302 271.737)"/>
    <ellipse id="Ellipse_2" data-name="Ellipse 2" class="cls-13" cx="54.812" cy="14.869" rx="54.812" ry="14.869" transform="translate(113.828 257.743)"/>
    <ellipse id="Ellipse_3" data-name="Ellipse 3" class="cls-14" cx="54.812" cy="14.869" rx="54.812" ry="14.869" transform="translate(113.828 256.577)"/>
    <line id="Line_4" data-name="Line 4" class="cls-12" x2="51.716" y2="15.936" transform="translate(145.576 298.641)"/>
    <line id="Line_5" data-name="Line 5" class="cls-12" x1="51.716" y2="15.936" transform="translate(139.988 298.641)"/>
    <path id="Path_11" data-name="Path 11" class="cls-11" d="M258.577,182.016h16.272A32.654,32.654,0,0,1,307.5,214.67v86.3H214.2V226.391a44.374,44.374,0,0,1,44.372-44.372Z" transform="translate(-89.3 -75.881)"/>
    <path id="Path_12" data-name="Path 12" class="cls-15" d="M214.209,386.016h93.3v50.73h-51.9a41.4,41.4,0,0,1-41.4-41.4Z" transform="translate(-89.302 -160.927)"/>
    <path id="Path_13" data-name="Path 13" class="cls-16" d="M366.107,298.654l57.051,54.206h62.976V344.7L431.9,328.953l-46.388-57.285S364.451,284.682,366.107,298.654Z" transform="translate(-239.94 -157.51)"/>
    <path id="Path_14" data-name="Path 14" class="cls-11" d="M366.107,296.654l57.051,54.206h62.976V342.7L431.9,326.953l-46.388-57.285S364.451,282.682,366.107,296.654Z" transform="translate(-239.94 -156.676)"/>
    <path id="Path_15" data-name="Path 15" class="cls-17" d="M572.012,394.908s30.322,2.332,22.158,8.164H572.012Z" transform="translate(-325.819 -208.887)"/>
    <path id="Path_16" data-name="Path 16" class="cls-17" d="M640.012,268.42s7.58-22.741,12.828-16.327-2.916,19.826-2.916,19.826Z" transform="translate(-354.167 -148.874)"/>
    <path id="Path_17" data-name="Path 17" class="cls-16" d="M214.209,386.016v2.721l93.3.194v-2.916Z" transform="translate(-89.302 -160.927)"/>
    <path id="Path_18" data-name="Path 18" class="cls-15" d="M483.361,518l62.757,5.719,3.4,128.151,22.468-7.315s33.6-145.194,1.56-157.431S506.874,458.767,486.2,471.9,483.361,518,483.361,518Z" transform="translate(-285.878 -238.944)"/>
    <path id="Path_19" data-name="Path 19" class="cls-8" d="M495.012,486.908s34.4,17.493,39.068,37.319" transform="translate(-293.718 -247.241)"/>
    <path id="Path_20" data-name="Path 20" class="cls-15" d="M427.844,521.639l48.981,39.651L422.013,649.34l22.741,6.414S539.8,574.119,519.975,546.13s-39.651-60.643-64.142-61.226S427.844,521.639,427.844,521.639Z" transform="translate(-263.285 -246.403)"/>
    <path id="Path_21" data-name="Path 21" class="cls-16" d="M414.209,251.016l12.245,20.992,2.916-5.831Z" transform="translate(-172.68 -104.647)"/>
    <path id="Path_22" data-name="Path 22" class="cls-18" d="M415.3,766.908s-18.076,13.995-4.082,18.659,42.567,8.163,42.567,8.163,4.665-8.163-1.749-11.662-15.161-1.749-15.161-1.749l1.166-7Z" transform="translate(-256.568 -363.971)"/>
    <path id="Path_23" data-name="Path 23" class="cls-18" d="M601.268,778.146s-7.94,22.021,6.4,18.578,40.444-15.583,40.444-15.583-.359-9.4-7.652-8.973-13.792,6.531-13.792,6.531L623.53,770.9Z" transform="translate(-337.101 -365.637)"/>
    <rect id="Rectangle_1" data-name="Rectangle 1" class="cls-17" width="23.324" height="34.986" rx="11.662" transform="translate(159.893 85.726)"/>
    <path id="Path_24" data-name="Path 24" class="cls-16" d="M435.674,224.908a11.662,11.662,0,0,0-11.662,11.662v3.965a37.322,37.322,0,0,0,23.324,0V236.57A11.662,11.662,0,0,0,435.674,224.908Z" transform="translate(-264.119 -138.016)"/>
    <circle id="Ellipse_4" data-name="Ellipse 4" class="cls-17" cx="37.319" cy="37.319" r="37.319" transform="translate(134.237 28.582)"/>
    <path id="Path_25" data-name="Path 25" class="cls-16" d="M378.344,156.363s9.33,2.4,14.578-8.2,9.33-16.385,30.9-10.122,25.915,7.031,26.952,1.108c.708-4.049-6.963-13.883-11.9-19.706a13.806,13.806,0,0,0-10.524-4.535H404l-14.578,6.748-11.079,9.64-2.332,13.014Z" transform="translate(-244.108 -92.158)"/>
    <path id="Path_26" data-name="Path 26" d="M378.344,154.363s9.33,2.4,14.578-8.2,9.33-16.385,30.9-10.122,25.915,7.031,26.952,1.108c.708-4.049-6.963-13.883-11.9-19.706a13.806,13.806,0,0,0-10.524-4.535H404l-14.578,6.748-11.079,9.64-2.332,13.014Z" transform="translate(-244.108 -91.324)"/>
    <ellipse id="Ellipse_5" data-name="Ellipse 5" class="cls-17" cx="3.79" cy="7.58" rx="3.79" ry="7.58" transform="translate(134.237 55.404)"/>
    <path id="Path_27" data-name="Path 27" d="M377.7,122.832c-.865-4.881-1.714-10.007-.14-14.708a15.169,15.169,0,0,1,9.759-9.519c2.941-.9,6.109-.885,9.031-1.847,4.112-1.354,7.336-4.5,10.908-6.944a35.953,35.953,0,0,1,10.313-4.867c3.3-.955,7.19-1.322,9.881.816,2.265,1.8,3.052,4.886,4.924,7.092,2.178,2.566,5.562,3.681,8.516,5.3a25.974,25.974,0,0,1,13.184,20.309c.1,1.252,0,2.741-1.059,3.419a3.78,3.78,0,0,1-2.127.388c-14.915-.213-29.848-.427-44.7-1.8a107.253,107.253,0,0,0-13.878-.788,45.4,45.4,0,0,0-20.435,5.766" transform="translate(-242.386 -79.352)"/>
    <rect id="Rectangle_2" data-name="Rectangle 2" class="cls-7" width="89.848" height="38.233" rx="19.117" transform="translate(0 376.26)"/>
    <path id="Path_28" data-name="Path 28" class="cls-4" d="M725.075,485.825a.875.875,0,1,0-.844-.875A.875.875,0,0,0,725.075,485.825Z" transform="translate(-389.278 -246.061)"/>
    <line id="Line_6" data-name="Line 6" class="cls-10" x2="60.643" y2="215.804" transform="translate(464.137 200.598)"/>
    <rect id="Rectangle_3" data-name="Rectangle 3" class="cls-19" width="327.477" height="12.761" transform="translate(197.549 194.279)"/>
    <rect id="Rectangle_4" data-name="Rectangle 4" class="cls-14" width="53.646" height="7.58" rx="3.79" transform="translate(278.264 191.269)"/>
    <g id="Group_3" data-name="Group 3" class="cls-3" transform="translate(310.918 106.754)">
      <rect id="Rectangle_5" data-name="Rectangle 5" class="cls-4" width="133.333" height="92.19" rx="28.22"/>
    </g>
    <rect id="Rectangle_6" data-name="Rectangle 6" class="cls-20" width="126.306" height="90.489" rx="26.835" transform="translate(313.296 108.454)"/>
    <rect id="Rectangle_7" data-name="Rectangle 7" class="cls-14" width="126.306" height="90.489" rx="26.835" transform="translate(315.045 108.454)"/>
    <circle id="Ellipse_6" data-name="Ellipse 6" class="cls-19" cx="4.082" cy="4.082" r="4.082" transform="translate(380.017 148.993)"/>
    <text id="E-ACEZ" class="cls-21" transform="translate(13 400.073)"><tspan x="0" y="0">E-ACEZ</tspan></text>
  </g>
</svg>
