<svg id="icon" height="512" viewBox="0 0 128 128" width="512" xmlns="http://www.w3.org/2000/svg"><path d="m12.272 29.867h101.344v83.992h-101.344z" fill="#d9e2e9"/><path d="m113.615 29.867v83.988h-101.347v-4.884h96.05v-79.104z" fill="#c1cdd3"/><path d="m113.616 114.859h-101.344a1 1 0 0 1 -1-1v-83.992a1 1 0 0 1 1-1h101.344a1 1 0 0 1 1 1v83.992a1 1 0 0 1 -1 1zm-100.344-2h99.344v-81.992h-99.344z" fill="#2f3a5a"/><path d="m19 48.002h-18l12.273-22.513h14.494z" fill="#f14253"/><path d="m19 49h-18a1 1 0 0 1 -.878-1.479l12.278-22.51a1 1 0 0 1 .878-.521h14.489a1 1 0 0 1 .932 1.363l-8.767 22.512a1 1 0 0 1 -.932.635zm-16.315-2h15.631l7.984-20.511h-12.433z" fill="#2f3a5a"/><path d="m37 48.002h-18l8.767-22.513h14.493z" fill="#d9e2e9"/><path d="m37 49h-18a1 1 0 0 1 -.932-1.363l8.767-22.513a1 1 0 0 1 .932-.637h14.493a1 1 0 0 1 .974 1.228l-5.26 22.513a1 1 0 0 1 -.974.772zm-16.537-2h15.744l4.793-20.511h-12.55z" fill="#2f3a5a"/><path d="m55 48.002h-18l5.26-22.513h14.493z" fill="#f14253"/><path d="m55 49h-18a1 1 0 0 1 -.974-1.228l5.26-22.513a1 1 0 0 1 .974-.772h14.493a1 1 0 0 1 1 1.078l-1.753 22.515a1 1 0 0 1 -1 .92zm-16.739-2h15.814l1.6-20.513h-12.622z" fill="#2f3a5a"/><path d="m73 48.002h-18l1.753-22.513h14.494z" fill="#d9e2e9"/><path d="m73 49h-18a1 1 0 0 1 -1-1.078l1.753-22.513a1 1 0 0 1 1-.922h14.494a1 1 0 0 1 1 .922l1.753 22.515a1 1 0 0 1 -1 1.076zm-16.919-2h15.838l-1.6-20.513h-12.641z" fill="#2f3a5a"/><path d="m91 48.002h-18l-1.753-22.513h14.493z" fill="#f14253"/><path d="m91 49h-18a1 1 0 0 1 -1-.922l-1.75-22.511a1 1 0 0 1 1-1.078h14.49a1 1 0 0 1 .974.772l5.26 22.513a1 1 0 0 1 -.974 1.226zm-17.075-2h15.814l-4.792-20.511h-12.619z" fill="#2f3a5a"/><path d="m109 48.002h-18l-5.26-22.513h14.493z" fill="#d9e2e9"/><path d="m109 49h-18a1 1 0 0 1 -.974-.772l-5.26-22.513a1 1 0 0 1 .974-1.228h14.493a1 1 0 0 1 .932.637l8.767 22.513a1 1 0 0 1 -.932 1.363zm-17.207-2h15.744l-7.987-20.511h-12.55z" fill="#2f3a5a"/><path d="m127 48.002h-18l-8.767-22.513h14.494z" fill="#f14253"/><path d="m127 49h-18a1 1 0 0 1 -.932-.637l-8.768-22.511a1 1 0 0 1 .932-1.363h14.493a1 1 0 0 1 .878.521l12.273 22.513a1 1 0 0 1 -.876 1.477zm-17.316-2h15.632l-11.183-20.511h-12.433z" fill="#2f3a5a"/><path d="m1 48v4.66a9 9 0 0 0 9 9 9 9 0 0 0 9-9v-4.66z" fill="#f14253"/><path d="m10 62.662a10.011 10.011 0 0 1 -10-10v-4.662a1 1 0 0 1 1-1h18a1 1 0 0 1 1 1v4.66a10.011 10.011 0 0 1 -10 10.002zm-8-13.662v3.66a8 8 0 0 0 16 0v-3.66z" fill="#2f3a5a"/><path d="m19 48h18a0 0 0 0 1 0 0v4.66a9 9 0 0 1 -9 9 9 9 0 0 1 -9-9v-4.66a0 0 0 0 1 0 0z" fill="#d9e2e9"/><path d="m28 62.662a10.011 10.011 0 0 1 -10-10v-4.662a1 1 0 0 1 1-1h18a1 1 0 0 1 1 1v4.66a10.011 10.011 0 0 1 -10 10.002zm-8-13.662v3.66a8 8 0 1 0 16 0v-3.66z" fill="#2f3a5a"/><path d="m37 48v4.66a9 9 0 0 0 9 9 9 9 0 0 0 9-9v-4.66z" fill="#f14253"/><path d="m46 62.662a10.011 10.011 0 0 1 -10-10v-4.662a1 1 0 0 1 1-1h18a1 1 0 0 1 1 1v4.66a10.011 10.011 0 0 1 -10 10.002zm-8-13.662v3.66a8 8 0 1 0 16 0v-3.66z" fill="#2f3a5a"/><path d="m55 48v4.66a9 9 0 0 0 18 0v-4.66z" fill="#d9e2e9"/><path d="m64 62.662a10.011 10.011 0 0 1 -10-10v-4.662a1 1 0 0 1 1-1h18a1 1 0 0 1 1 1v4.66a10.011 10.011 0 0 1 -10 10.002zm-8-13.662v3.66a8 8 0 1 0 16 0v-3.66z" fill="#2f3a5a"/><path d="m73 48v4.66a9 9 0 0 0 9 9 9 9 0 0 0 9-9v-4.66z" fill="#f14253"/><path d="m82 62.662a10.011 10.011 0 0 1 -10-10v-4.662a1 1 0 0 1 1-1h18a1 1 0 0 1 1 1v4.66a10.011 10.011 0 0 1 -10 10.002zm-8-13.662v3.66a8 8 0 1 0 16 0v-3.66z" fill="#2f3a5a"/><path d="m91 48v4.66a9 9 0 0 0 18 0v-4.66z" fill="#d9e2e9"/><path d="m100 62.662a10.011 10.011 0 0 1 -10-10v-4.662a1 1 0 0 1 1-1h18a1 1 0 0 1 1 1v4.66a10.011 10.011 0 0 1 -10 10.002zm-8-13.662v3.66a8 8 0 1 0 16 0v-3.66z" fill="#2f3a5a"/><path d="m109 48v4.66a9 9 0 0 0 9 9 9 9 0 0 0 9-9v-4.66z" fill="#f14253"/><path d="m118 62.662a10.011 10.011 0 0 1 -10-10v-4.662a1 1 0 0 1 1-1h18a1 1 0 0 1 1 1v4.66a10.011 10.011 0 0 1 -10 10.002zm-8-13.662v3.66a8 8 0 1 0 16 0v-3.66z" fill="#2f3a5a"/><path d="m26.522 73.751h25.479v40.108h-25.479z" fill="#bd8d5a"/><path d="m52 114.859h-25.478a1 1 0 0 1 -1-1v-40.109a1 1 0 0 1 1-1h25.478a1 1 0 0 1 1 1v40.108a1 1 0 0 1 -1 1.001zm-24.479-2h23.479v-38.109h-23.478z" fill="#2f3a5a"/><path d="m65.252 73.751h17.961v14.493h-17.961z" fill="#5fc4f8"/><path d="m83.208 73.748v14.492h-17.954v-2.609h14.773v-11.883z" fill="#38aece"/><g fill="#5fc4f8"><path d="m83.213 73.751h17.961v14.493h-17.961z"/><path d="m65.252 88.244h17.961v14.493h-17.961z"/><path d="m83.213 88.244h17.961v14.493h-17.961z"/></g><path d="m101.172 73.748v14.492h-17.964v-2.609h14.772v-11.883z" fill="#38aece"/><path d="m83.208 88.24v14.493h-17.954v-2.609h14.773v-11.884z" fill="#38aece"/><path d="m101.172 88.24v14.493h-17.964v-2.609h14.772v-11.884z" fill="#38aece"/><g fill="#2f3a5a"><path d="m83.213 89.244h-17.961a1 1 0 0 1 -1-1v-14.494a1 1 0 0 1 1-1h17.961a1 1 0 0 1 1 1v14.494a1 1 0 0 1 -1 1zm-16.961-2h15.961v-12.494h-15.961z"/><path d="m101.175 89.244h-17.962a1 1 0 0 1 -1-1v-14.494a1 1 0 0 1 1-1h17.962a1 1 0 0 1 1 1v14.494a1 1 0 0 1 -1 1zm-16.962-2h15.962v-12.494h-15.962z"/><path d="m83.213 103.736h-17.961a1 1 0 0 1 -1-1v-14.492a1 1 0 0 1 1-1h17.961a1 1 0 0 1 1 1v14.493a1 1 0 0 1 -1 .999zm-16.961-2h15.961v-12.492h-15.961z"/><path d="m101.175 103.736h-17.962a1 1 0 0 1 -1-1v-14.492a1 1 0 0 1 1-1h17.962a1 1 0 0 1 1 1v14.493a1 1 0 0 1 -1 .999zm-16.962-2h15.962v-12.492h-15.962z"/></g><path d="m13.526 14.141h101.201v11.348h-101.201z" fill="#d9e2e9"/><path d="m114.724 14.142v11.346h-101.202v-4.312h96.084v-7.034z" fill="#c1cdd3"/><path d="m114.727 26.489h-101.202a1 1 0 0 1 -1-1v-11.348a1 1 0 0 1 1-1h101.2a1 1 0 0 1 1 1v11.348a1 1 0 0 1 -.998 1zm-100.2-2h99.2v-9.348h-99.2z" fill="#2f3a5a"/><path d="m47.6 99.494a1 1 0 0 1 -1-1v-4.929a1 1 0 0 1 2 0v4.929a1 1 0 0 1 -1 1z" fill="#2f3a5a"/></svg>