<?xml version="1.0" encoding="utf-8"?>
<!-- Generator: Adobe Illustrator 23.0.5, SVG Export Plug-In . SVG Version: 6.00 Build 0)  -->
<svg version="1.1" xmlns="http://www.w3.org/2000/svg" xmlns:xlink="http://www.w3.org/1999/xlink" x="0px" y="0px"
	 viewBox="0 0 500 500" style="enable-background:new 0 0 500 500;" xml:space="preserve">
<style type="text/css">
	.st0{fill:#FFF9FF;}
	.st1{fill:#D4E1F7;}
	.st2{fill:#5EFF6D;}
	.st3{fill:#001030;}
	.st4{fill:#2A3554;}
	.st5{fill:#2BD184;}
	.st6{fill:#005DB1;}
	.st7{fill:#FF5767;}
	.st8{fill:#F9AF8B;}
	.st9{fill:#021019;}
	.st10{fill:#4A5180;}
	.st11{fill:#FC8664;}
	.st12{fill:#004386;}
	.st13{fill:#FD664D;}
	.st14{fill:#E22445;}
</style>
<g id="BACKGROUND">
	<rect class="st0" width="500" height="500"/>
</g>
<g id="OBJECTS">
	<ellipse class="st1" cx="251.77" cy="431.41" rx="212.5" ry="15.29"/>
	<path class="st1" d="M219.64,165.13c-17.2-62.38-94.69-82.47-139.09-35.85c-0.64,0.67-1.27,1.35-1.91,2.04
		c-63.67,69.21-35.34,242.12,98.71,281.52c139.12,40.89,271.64-34.25,279.41-104.81c7.76-70.56-53.54-92.74-148.67-73
		C254.33,246.18,230.34,203.97,219.64,165.13z"/>
	<g>
		<path class="st2" d="M414.31,227.59l-2.05,2.53l-1.43-2.43l17.07-21.04c0.28-2.54,0.29-6.15-0.66-10.71
			c-1.78-8.53-2.16-17.93,2.92-15.64c4.41,1.99,4.49,12.72,1.2,22.08l6.6-8.14c1.61-2.87,3.92-6.95,5.24-11.98
			c3.05-11.65,8.08-22.11,12.64-17.33c4.56,4.79-4.44,22.63-16.67,32.01l-3.4,4.19c8.79-6.99,22.41-10.58,25.72-6.06
			c3.29,4.5-5.99,6.06-14.7,6.08c-6.63,0.01-10.97,1.54-13.1,2.53l-16.04,19.78c13.96-11.04,35.45-16.68,40.69-9.51
			c5.22,7.14-9.5,9.62-23.33,9.65C424.57,223.62,417.7,226.01,414.31,227.59z"/>
		<g>
			<g>
				<g>
					<path class="st2" d="M118.96,129.98c1.37,2.22,1.74,4.93,0.97,7.43l0,0c-0.79,2.58-2.32,4.79-4.32,6.43
						c-0.69,0.56-1.44,1.06-2.23,1.47c-0.32,0.17-0.65,0.33-0.99,0.47c-1.24,0.53-2.57,0.87-3.95,1
						c-5.09,0.48-10.23-0.58-14.65-3.16c-1.86-1.08-3.29-2.25-3.97-3.46c-3.39-6.08-2.56-16.11-10.03-16.86
						c-7.48-0.75-17.08-4.46-15.51-16.18S50.6,81.62,50.6,81.62s15.33,0.32,23.44,13.53c8.1,13.21,10.77,9.89,21.65,10.75
						c10.88,0.86,17.22,0.03,20.75,17.71C116.91,125.97,117.79,128.09,118.96,129.98z"/>
				</g>
			</g>
			<g>
				<g>
					<path class="st2" d="M113.38,145.3c-0.32,0.17-0.65,0.33-0.99,0.47c-5.09-4.86-8.74-10.9-9.77-16.18
						c-1.48-7.54-7.99-12.2-21.11-15.12c-8.44-1.87-11.81-11.21-11.95-11.61c-0.09-0.26,0.05-0.56,0.32-0.65
						c0.26-0.09,0.56,0.04,0.65,0.31c0.03,0.09,3.32,9.2,11.2,10.95c13.57,3.02,20.33,7.93,21.89,15.92
						c0.98,5.02,4.63,11.03,9.53,15.68C113.22,145.15,113.3,145.22,113.38,145.3z"/>
				</g>
			</g>
		</g>
		<g>
			<g>
				<path class="st2" d="M133.56,147.56l25.15-5.75c0-0.03,0-0.05,0-0.08c0.13-2.67-0.06-5.35-0.57-7.98
					c-1.71-8.87-6.62-31.01-13.6-35.37c-8.78-5.48-23.75-4.98-24.31-16.15c-0.56-11.17-5.38-25.71-22.9-24.24
					C79.8,59.45,60.43,35.78,60.43,35.78s-0.66,22.81,18.39,35.83c19.04,13.02,13.91,16.73,14.38,32.97
					c0.47,16.24-1.21,25.59,24.79,32.14C125.05,138.48,130.03,142.56,133.56,147.56z"/>
			</g>
			<g>
				<g>
					<path class="st2" d="M105.49,84.39c3.49,20.39,10.29,30.79,22.05,33.7c7.39,1.83,16.05,7.7,22.61,15.31
						c2.07,2.4,4.3,5.39,6.31,8.92l1.55-0.35c-2.12-3.8-4.5-7-6.7-9.56c-6.86-7.96-15.6-13.86-23.39-15.79
						c-11.09-2.75-17.54-12.77-20.91-32.48c-2.17-12.68-15.8-18.37-16.38-18.61c-0.39-0.16-0.83,0.03-0.99,0.42
						c-0.16,0.39,0.03,0.83,0.42,0.99C90.17,66.99,103.47,72.55,105.49,84.39z"/>
				</g>
			</g>
		</g>
		<g>
			<g>
				<g>
					<path class="st2" d="M400.75,326.48c-1.56,2.1-2.15,4.76-1.6,7.32l0,0c0.57,2.64,1.9,4.98,3.76,6.77
						c0.64,0.62,1.34,1.17,2.09,1.65c0.31,0.2,0.62,0.38,0.95,0.55c1.19,0.63,2.49,1.08,3.85,1.33c5.03,0.91,10.24,0.29,14.87-1.9
						c1.94-0.92,3.47-1.96,4.25-3.11c3.89-5.77,3.92-15.83,11.43-15.94c7.51-0.11,17.4-2.99,16.83-14.8
						c-0.56-11.8,15.8-24.24,15.8-24.24s-15.3-0.99-24.51,11.49c-9.2,12.48-11.57,8.94-22.49,8.87
						c-10.92-0.07-17.16-1.43-22.18,15.88C403.14,322.66,402.08,324.69,400.75,326.48z"/>
				</g>
			</g>
			<g>
				<g>
					<path class="st2" d="M405,342.22c0.31,0.2,0.62,0.38,0.95,0.55c5.48-4.41,9.64-10.12,11.11-15.28
						c2.11-7.38,9-11.47,22.32-13.26c8.57-1.15,12.72-10.17,12.89-10.55c0.12-0.26,0-0.56-0.26-0.68c-0.26-0.12-0.56,0-0.68,0.26
						c-0.04,0.09-4.09,8.88-12.09,9.96c-13.78,1.85-20.93,6.17-23.17,14c-1.41,4.92-5.56,10.59-10.83,14.81
						C405.17,342.08,405.09,342.15,405,342.22z"/>
				</g>
			</g>
		</g>
		<g>
			<g>
				<path class="st2" d="M398.21,331.26l-24.68-7.53c0-0.03,0-0.05,0-0.08c0.06-2.68,0.44-5.33,1.13-7.92
					c2.34-8.73,8.81-30.46,16.09-34.31c9.15-4.84,24.04-3.28,25.4-14.38c1.36-11.1,7.2-25.26,24.57-22.55
					c17.38,2.71,38.37-19.52,38.37-19.52s-0.97,22.8-20.89,34.43c-19.92,11.63-15.06,15.7-16.69,31.86
					c-1.63,16.16-0.61,25.61-27.02,30.29C407.34,322.81,402.08,326.52,398.21,331.26z"/>
			</g>
			<g>
				<g>
					<path class="st2" d="M430.7,270.25c-4.93,20.09-12.45,29.98-24.39,32.05c-7.5,1.3-16.56,6.54-23.64,13.66
						c-2.24,2.25-4.67,5.07-6.93,8.45l-1.52-0.46c2.39-3.64,4.99-6.66,7.37-9.06c7.41-7.45,16.55-12.71,24.46-14.09
						c11.26-1.95,18.41-11.49,23.17-30.91c3.06-12.49,17.06-17.2,17.66-17.4c0.4-0.13,0.83,0.09,0.96,0.49
						c0.13,0.4-0.09,0.83-0.49,0.96C447.21,253.98,433.56,258.58,430.7,270.25z"/>
				</g>
			</g>
		</g>
		<g>
			<path class="st2" d="M454.2,122.44c-2.51,12.07-14.3,12.68-13.25,22.22c1.05,9.53-4.35,17.29-12.75,16.23
				c-8.4-1.06-14.53-2.31-17.5,7.51c-2.97,9.82-14.58,15.58-19.96,8.47c-1.34-1.77-2.79-3.68-4.21-5.57
				c-0.39-0.51-0.77-1.03-1.15-1.53c-0.09-0.12-0.18-0.23-0.26-0.35c-5.7-7.57-4.93-18.29,2-24.75c2.81-2.62,6.29-4.25,10.46-3.39
				c13.07,2.68,7.4-9.76,14.55-15.83c8.23-6.99,16.33-0.54,21.88-6.37C441.74,110.98,456.71,110.37,454.2,122.44z"/>
			<g>
				<path class="st2" d="M439.4,128.8l-52.86,42.51c-0.39-0.51-0.77-1.03-1.15-1.53l52.82-42.47c0.41-0.33,1.01-0.27,1.35,0.15
					C439.88,127.87,439.82,128.47,439.4,128.8z"/>
			</g>
		</g>
		<g>
			<path class="st2" d="M440.75,67.17c2.3,15.32-11.32,21.19-5.92,31.97c5.4,10.78,2.42,22.27-7.94,24.69
				c-10.36,2.42-18.13,3.61-17.34,16.48c0.79,12.87-10.38,24.72-19.82,18.69c-2.35-1.5-4.89-3.13-7.38-4.72
				c-0.68-0.44-1.36-0.87-2.03-1.3c-0.16-0.1-0.31-0.2-0.46-0.3c-10.02-6.43-13.79-19.41-8.44-30.04c2.17-4.31,5.56-7.75,10.85-8.55
				c16.57-2.54,4.46-14.73,10.23-25c6.65-11.83,19.01-7.76,23.01-17.05C421.07,59.11,438.45,51.86,440.75,67.17z"/>
			<g>
				<path class="st2" d="M426.1,81.13l-43.75,73.15c-0.68-0.44-1.36-0.87-2.03-1.3l43.71-73.09c0.34-0.57,1.08-0.76,1.65-0.42
					C426.25,79.82,426.44,80.56,426.1,81.13z"/>
			</g>
		</g>
		<g>
			<path class="st2" d="M26.76,293.99c4.83,11.34,16.51,9.64,17.35,19.2c0.84,9.56,7.65,16.11,15.68,13.42
				c8.03-2.69,13.79-5.11,18.63,3.94c4.83,9.05,17.34,12.43,21.23,4.4c0.97-2,2.01-4.16,3.04-6.28c0.28-0.58,0.56-1.16,0.83-1.73
				c0.06-0.13,0.13-0.26,0.19-0.39c4.11-8.54,1.25-18.9-6.81-23.88c-3.26-2.02-7-2.93-10.92-1.27c-12.29,5.19-9.17-8.13-17.36-12.68
				c-9.44-5.24-16.12,2.67-22.71-1.96C36.73,280.31,21.93,282.65,26.76,293.99z"/>
			<g>
				<g>
					<path class="st2" d="M42.51,297.33l60.16,31.34c0.28-0.58,0.56-1.16,0.83-1.73l-60.11-31.31c-0.47-0.24-1.05-0.06-1.29,0.41
						C41.86,296.51,42.04,297.09,42.51,297.33z"/>
				</g>
			</g>
		</g>
		<g>
			<path class="st2" d="M37.73,241.07c-1.41,15.42,12.53,20.5,7.76,31.57c-4.77,11.07-1.13,22.38,9.35,24.19
				c10.49,1.81,18.3,2.56,18.26,15.45c-0.04,12.89,11.79,24.08,20.87,17.51c2.26-1.63,4.71-3.4,7.1-5.14
				c0.65-0.48,1.31-0.95,1.95-1.41c0.15-0.11,0.3-0.21,0.45-0.32c9.63-7,12.64-20.17,6.69-30.48c-2.41-4.17-5.99-7.41-11.33-7.91
				c-16.69-1.58-5.3-14.45-11.66-24.37c-7.32-11.42-19.43-6.65-23.96-15.7C56.91,231.88,39.15,225.64,37.73,241.07z"/>
			<g>
				<g>
					<path class="st2" d="M53.17,254.15l47.91,70.5c0.65-0.48,1.31-0.95,1.95-1.41L55.16,252.8c-0.37-0.55-1.12-0.69-1.67-0.32
						C52.94,252.85,52.8,253.6,53.17,254.15z"/>
				</g>
			</g>
		</g>
	</g>
	<g>
		<rect x="224.97" y="354.1" class="st3" width="50.6" height="59.37"/>
		<path class="st4" d="M305.17,428.98H195.37v-3.43c0-6.65,5.39-12.03,12.03-12.03h85.73c6.65,0,12.03,5.39,12.03,12.03V428.98z"/>
		<g>
			<path class="st4" d="M417.91,135.81v214.99c0,3.6-2.92,6.51-6.51,6.51H85.03c-3.6,0-6.51-2.92-6.51-6.51V135.81
				c0-3.6,2.91-6.51,6.51-6.51h326.36C414.99,129.29,417.91,132.21,417.91,135.81z"/>
			<path class="st0" d="M408.9,145.02v196.56c0,3.65-2.96,6.61-6.61,6.61H94.13c-0.81,0-1.58-0.14-2.29-0.42
				c-2.52-0.92-4.31-3.35-4.31-6.19V145.02c0-3.65,2.96-6.61,6.6-6.61h308.16c0.88,0,1.73,0.17,2.5,0.49
				C407.21,139.88,408.9,142.25,408.9,145.02z"/>
			<g>
				<path class="st1" d="M408.91,145.02v9.79H87.52v-9.79c0-3.65,2.96-6.61,6.61-6.61H402.3
					C405.95,138.41,408.91,141.36,408.91,145.02z"/>
				<path class="st0" d="M131.09,146.73L131.09,146.73c0,1.2,0.97,2.17,2.17,2.17h217.07c1.2,0,2.17-0.97,2.17-2.17l0,0
					c0-1.2-0.97-2.17-2.17-2.17H133.26C132.06,144.56,131.09,145.53,131.09,146.73z"/>
				<g>
					<path class="st4" d="M106.34,146.73v1.61c0,0.46-0.5,0.75-0.9,0.52l-1.39-0.8l-1.39-0.8c-0.4-0.23-0.4-0.81,0-1.04l1.39-0.8
						l1.39-0.8c0.4-0.23,0.9,0.06,0.9,0.52V146.73z"/>
					<path class="st4" d="M113.58,146.73v1.61c0,0.46,0.5,0.75,0.9,0.52l1.39-0.8l1.39-0.8c0.4-0.23,0.4-0.81,0-1.04l-1.39-0.8
						l-1.39-0.8c-0.4-0.23-0.9,0.06-0.9,0.52V146.73z"/>
				</g>
				<g>
					<circle class="st5" cx="380.48" cy="146.6" r="3.21"/>
					<circle class="st6" cx="368.6" cy="146.6" r="3.21"/>
					<path class="st7" d="M395.57,146.6c0,1.77-1.44,3.21-3.21,3.21c-1.77,0-3.21-1.44-3.21-3.21c0-1.77,1.44-3.21,3.21-3.21
						C394.13,143.39,395.57,144.83,395.57,146.6z"/>
				</g>
			</g>
			<g>
				<path class="st1" d="M271.89,241.75c-0.45,0-0.9-0.13-1.29-0.39l-0.41-0.27c-0.24-0.16-0.43-0.29-0.63-0.42l-3.33-2.3
					c-5.96-4.11-11.92-8.23-17.88-12.35c-5.95,4.26-11.9,8.5-17.85,12.75l-2.79,1.99c-0.16,0.11-0.32,0.22-0.51,0.35l-0.28,0.19
					c-0.8,0.55-1.85,0.54-2.65-0.02c-0.79-0.55-1.16-1.54-0.92-2.48l0.07-0.29c0.06-0.24,0.11-0.44,0.17-0.63l1.07-3.46
					c2-6.48,4-12.97,6.01-19.44c-6.12-4.42-12.22-8.84-18.32-13.26l-3.94-2.86c-0.37-0.27-0.84-0.66-1.21-1.35
					c-0.39-0.72-0.38-1.59,0.04-2.29s1.16-1.14,1.98-1.15l0.5-0.01c0.38,0,0.75-0.01,1.13-0.02l6.19-0.14
					c6.75-0.16,13.51-0.31,20.26-0.46c2.03-6.62,4.07-13.23,6.11-19.84l1.7-5.48c0.3-0.92,1.14-1.56,2.1-1.61
					c0.97-0.05,1.86,0.51,2.25,1.4l0.12,0.26c0.09,0.21,0.17,0.38,0.23,0.55l1.55,4.07c2.67,7.02,5.34,14.04,8,21.07
					c6.63-0.14,13.24-0.25,19.86-0.37l4.91-0.09c0.39-0.01,0.99-0.02,1.72,0.18c0.87,0.23,1.52,0.94,1.69,1.82
					c0.17,0.88-0.19,1.78-0.91,2.31l-0.16,0.12c-0.14,0.1-0.28,0.21-0.42,0.31l-3.95,2.75c-5.74,4-11.48,8-17.23,11.99
					c2.54,7.02,5.06,14.04,7.57,21.05l1.4,3.9c0.06,0.18,0.12,0.36,0.18,0.59l0.09,0.32c0.28,0.94-0.06,1.95-0.85,2.54
					C272.86,241.6,272.38,241.75,271.89,241.75z"/>
			</g>
			<g>
				<g>
					<path class="st7" d="M198.52,266.25c-0.09,0-0.18-0.03-0.26-0.08l-0.08-0.05c-0.05-0.03-0.09-0.06-0.13-0.08l-0.66-0.46
						c-1.18-0.82-2.37-1.63-3.55-2.45c-1.18,0.84-2.36,1.69-3.54,2.53l-0.55,0.39c-0.03,0.02-0.06,0.04-0.1,0.07l-0.06,0.04
						c-0.16,0.11-0.37,0.11-0.52,0c-0.16-0.11-0.23-0.31-0.18-0.49l0.01-0.06c0.01-0.05,0.02-0.09,0.03-0.13l0.21-0.69
						c0.4-1.29,0.79-2.57,1.19-3.86c-1.22-0.88-2.42-1.75-3.63-2.63l-0.78-0.57c-0.07-0.05-0.17-0.13-0.24-0.27
						c-0.08-0.14-0.07-0.31,0.01-0.45c0.08-0.14,0.23-0.23,0.39-0.23l0.1,0c0.07,0,0.15,0,0.22,0l1.23-0.03
						c1.34-0.03,2.68-0.06,4.02-0.09c0.4-1.31,0.81-2.62,1.21-3.94l0.34-1.09c0.06-0.18,0.23-0.31,0.42-0.32
						c0.19-0.01,0.37,0.1,0.45,0.28l0.02,0.05c0.02,0.04,0.03,0.08,0.05,0.11l0.31,0.81c0.53,1.39,1.06,2.79,1.59,4.18
						c1.32-0.03,2.63-0.05,3.94-0.07l0.97-0.02c0.08,0,0.2,0,0.34,0.04c0.17,0.05,0.3,0.19,0.34,0.36c0.03,0.18-0.04,0.35-0.18,0.46
						l-0.03,0.02c-0.03,0.02-0.06,0.04-0.08,0.06l-0.78,0.55c-1.14,0.79-2.28,1.59-3.42,2.38c0.5,1.39,1,2.79,1.5,4.18l0.28,0.77
						c0.01,0.04,0.02,0.07,0.04,0.12l0.02,0.06c0.06,0.19-0.01,0.39-0.17,0.5C198.72,266.22,198.62,266.25,198.52,266.25z"/>
					<path class="st7" d="M225.33,266.25c-0.09,0-0.18-0.03-0.26-0.08l-0.08-0.05c-0.05-0.03-0.09-0.06-0.13-0.08l-0.66-0.46
						c-1.18-0.82-2.37-1.63-3.55-2.45c-1.18,0.84-2.36,1.69-3.54,2.53l-0.55,0.39c-0.03,0.02-0.06,0.04-0.1,0.07l-0.06,0.04
						c-0.16,0.11-0.37,0.11-0.52,0c-0.16-0.11-0.23-0.31-0.18-0.49l0.01-0.06c0.01-0.05,0.02-0.09,0.03-0.13l0.21-0.69
						c0.4-1.29,0.79-2.57,1.19-3.86c-1.22-0.88-2.42-1.75-3.63-2.63l-0.78-0.57c-0.07-0.05-0.17-0.13-0.24-0.27
						c-0.08-0.14-0.07-0.31,0.01-0.45c0.08-0.14,0.23-0.23,0.39-0.23l0.1,0c0.07,0,0.15,0,0.22,0l1.23-0.03
						c1.34-0.03,2.68-0.06,4.02-0.09c0.4-1.31,0.81-2.62,1.21-3.94l0.34-1.09c0.06-0.18,0.23-0.31,0.42-0.32
						c0.19-0.01,0.37,0.1,0.45,0.28l0.02,0.05c0.02,0.04,0.03,0.08,0.05,0.11l0.31,0.81c0.53,1.39,1.06,2.79,1.59,4.18
						c1.32-0.03,2.63-0.05,3.94-0.07l0.97-0.02c0.08,0,0.2,0,0.34,0.04c0.17,0.05,0.3,0.19,0.34,0.36c0.03,0.18-0.04,0.35-0.18,0.46
						l-0.03,0.02c-0.03,0.02-0.06,0.04-0.08,0.06l-0.78,0.55c-1.14,0.79-2.28,1.59-3.42,2.38c0.5,1.39,1,2.79,1.5,4.18l0.28,0.77
						c0.01,0.04,0.02,0.07,0.04,0.12l0.02,0.06c0.06,0.19-0.01,0.39-0.17,0.5C225.53,266.22,225.43,266.25,225.33,266.25z"/>
					<path class="st7" d="M252.14,266.25c-0.09,0-0.18-0.03-0.26-0.08l-0.08-0.05c-0.05-0.03-0.09-0.06-0.13-0.08l-0.66-0.46
						c-1.18-0.82-2.37-1.63-3.55-2.45c-1.18,0.84-2.36,1.69-3.54,2.53l-0.55,0.39c-0.03,0.02-0.06,0.04-0.1,0.07l-0.06,0.04
						c-0.16,0.11-0.37,0.11-0.53,0c-0.16-0.11-0.23-0.31-0.18-0.49l0.01-0.06c0.01-0.05,0.02-0.09,0.03-0.13l0.21-0.69
						c0.4-1.29,0.79-2.57,1.19-3.86c-1.22-0.88-2.42-1.75-3.63-2.63l-0.78-0.57c-0.07-0.05-0.17-0.13-0.24-0.27
						c-0.08-0.14-0.07-0.31,0.01-0.45c0.08-0.14,0.23-0.23,0.39-0.23l0.1,0c0.07,0,0.15,0,0.22,0l1.23-0.03
						c1.34-0.03,2.68-0.06,4.02-0.09c0.4-1.31,0.81-2.62,1.21-3.94l0.34-1.09c0.06-0.18,0.23-0.31,0.42-0.32
						c0.19-0.01,0.37,0.1,0.45,0.28l0.02,0.05c0.02,0.04,0.03,0.08,0.05,0.11l0.31,0.81c0.53,1.39,1.06,2.79,1.59,4.18
						c1.32-0.03,2.63-0.05,3.94-0.07l0.97-0.02c0.08,0,0.2,0,0.34,0.04c0.17,0.05,0.3,0.19,0.34,0.36c0.03,0.18-0.04,0.35-0.18,0.46
						l-0.03,0.02c-0.03,0.02-0.06,0.04-0.08,0.06l-0.78,0.55c-1.14,0.79-2.28,1.59-3.42,2.38c0.5,1.39,1,2.79,1.5,4.18l0.28,0.77
						c0.01,0.04,0.02,0.07,0.04,0.12l0.02,0.06c0.06,0.19-0.01,0.39-0.17,0.5C252.33,266.22,252.24,266.25,252.14,266.25z"/>
					<path class="st7" d="M278.95,266.25c-0.09,0-0.18-0.03-0.26-0.08l-0.08-0.05c-0.05-0.03-0.09-0.06-0.13-0.08l-0.66-0.46
						c-1.18-0.82-2.37-1.63-3.55-2.45c-1.18,0.84-2.36,1.69-3.54,2.53l-0.55,0.39c-0.03,0.02-0.06,0.04-0.1,0.07l-0.06,0.04
						c-0.16,0.11-0.37,0.11-0.53,0c-0.16-0.11-0.23-0.31-0.18-0.49l0.01-0.06c0.01-0.05,0.02-0.09,0.03-0.13l0.21-0.69
						c0.4-1.29,0.79-2.57,1.19-3.86c-1.22-0.88-2.42-1.75-3.63-2.63l-0.78-0.57c-0.07-0.05-0.17-0.13-0.24-0.27
						c-0.08-0.14-0.07-0.31,0.01-0.45c0.08-0.14,0.23-0.23,0.39-0.23l0.1,0c0.07,0,0.15,0,0.22,0l1.23-0.03
						c1.34-0.03,2.68-0.06,4.02-0.09c0.4-1.31,0.81-2.62,1.21-3.94l0.34-1.09c0.06-0.18,0.23-0.31,0.42-0.32
						c0.19-0.01,0.37,0.1,0.45,0.28l0.02,0.05c0.02,0.04,0.03,0.08,0.05,0.11l0.31,0.81c0.53,1.39,1.06,2.79,1.59,4.18
						c1.32-0.03,2.63-0.05,3.94-0.07l0.97-0.02c0.08,0,0.2,0,0.34,0.04c0.17,0.05,0.3,0.19,0.34,0.36c0.03,0.18-0.04,0.35-0.18,0.46
						l-0.03,0.02c-0.03,0.02-0.06,0.04-0.08,0.06l-0.78,0.55c-1.14,0.79-2.28,1.59-3.42,2.38c0.5,1.39,1,2.79,1.5,4.18l0.28,0.77
						c0.01,0.04,0.02,0.07,0.04,0.12l0.02,0.06c0.06,0.19-0.01,0.39-0.17,0.5C279.14,266.22,279.05,266.25,278.95,266.25z"/>
					<path class="st1" d="M305.76,266.25c-0.09,0-0.18-0.03-0.26-0.08l-0.08-0.05c-0.05-0.03-0.09-0.06-0.12-0.08l-0.66-0.46
						c-1.18-0.82-2.37-1.63-3.55-2.45c-1.18,0.84-2.36,1.69-3.54,2.53l-0.55,0.39c-0.03,0.02-0.06,0.04-0.1,0.07l-0.06,0.04
						c-0.16,0.11-0.37,0.11-0.52,0s-0.23-0.31-0.18-0.49l0.01-0.06c0.01-0.05,0.02-0.09,0.03-0.13l0.21-0.69
						c0.4-1.29,0.79-2.57,1.19-3.86c-1.22-0.88-2.42-1.75-3.63-2.63l-0.78-0.57c-0.07-0.05-0.17-0.13-0.24-0.27
						c-0.08-0.14-0.07-0.31,0.01-0.45c0.08-0.14,0.23-0.23,0.39-0.23l0.1,0c0.07,0,0.15,0,0.22,0l1.23-0.03
						c1.34-0.03,2.68-0.06,4.02-0.09c0.4-1.31,0.81-2.62,1.21-3.94l0.34-1.09c0.06-0.18,0.23-0.31,0.42-0.32
						c0.19-0.01,0.37,0.1,0.45,0.28l0.02,0.05c0.02,0.04,0.03,0.08,0.05,0.11l0.31,0.81c0.53,1.39,1.06,2.79,1.59,4.18
						c1.32-0.03,2.63-0.05,3.94-0.07l0.97-0.02c0.08,0,0.2,0,0.34,0.04c0.17,0.05,0.3,0.19,0.34,0.36c0.03,0.18-0.04,0.35-0.18,0.46
						l-0.03,0.02c-0.03,0.02-0.06,0.04-0.08,0.06l-0.78,0.55c-1.14,0.79-2.28,1.59-3.42,2.38c0.5,1.39,1,2.79,1.5,4.18l0.28,0.77
						c0.01,0.04,0.02,0.07,0.04,0.12l0.02,0.06c0.06,0.19-0.01,0.39-0.17,0.5C305.95,266.22,305.86,266.25,305.76,266.25z"/>
				</g>
			</g>
			<g>
				<g>
					<path class="st1" d="M176.9,189.39h-60.41c-1.52,0-2.76-1.37-2.76-3.06l0,0c0-1.69,1.24-3.06,2.76-3.06h60.41
						c1.52,0,2.76,1.37,2.76,3.06l0,0C179.65,188.02,178.42,189.39,176.9,189.39z"/>
					<path class="st1" d="M176.9,204.8h-60.41c-1.52,0-2.76-1.37-2.76-3.06l0,0c0-1.69,1.24-3.06,2.76-3.06h60.41
						c1.52,0,2.76,1.37,2.76,3.06l0,0C179.65,203.43,178.42,204.8,176.9,204.8z"/>
					<path class="st1" d="M176.9,220.22h-60.41c-1.52,0-2.76-1.37-2.76-3.06l0,0c0-1.69,1.24-3.06,2.76-3.06h60.41
						c1.52,0,2.76,1.37,2.76,3.06l0,0C179.65,218.84,178.42,220.22,176.9,220.22z"/>
					<path class="st1" d="M176.9,235.63h-60.41c-1.52,0-2.76-1.37-2.76-3.06l0,0c0-1.69,1.24-3.06,2.76-3.06h60.41
						c1.52,0,2.76,1.37,2.76,3.06l0,0C179.65,234.25,178.42,235.63,176.9,235.63z"/>
				</g>
				<g>
					<path class="st1" d="M176.9,284.8h-60.41c-1.52,0-2.76-1.37-2.76-3.06l0,0c0-1.69,1.24-3.06,2.76-3.06h60.41
						c1.52,0,2.76,1.37,2.76,3.06l0,0C179.65,283.43,178.42,284.8,176.9,284.8z"/>
					<path class="st1" d="M176.9,300.21h-60.41c-1.52,0-2.76-1.37-2.76-3.06l0,0c0-1.69,1.24-3.06,2.76-3.06h60.41
						c1.52,0,2.76,1.37,2.76,3.06l0,0C179.65,298.84,178.42,300.21,176.9,300.21z"/>
					<path class="st1" d="M176.9,315.62h-60.41c-1.52,0-2.76-1.37-2.76-3.06l0,0c0-1.69,1.24-3.06,2.76-3.06h60.41
						c1.52,0,2.76,1.37,2.76,3.06l0,0C179.65,314.25,178.42,315.62,176.9,315.62z"/>
					<path class="st1" d="M176.9,331.03h-60.41c-1.52,0-2.76-1.37-2.76-3.06l0,0c0-1.69,1.24-3.06,2.76-3.06h60.41
						c1.52,0,2.76,1.37,2.76,3.06l0,0C179.65,329.66,178.42,331.03,176.9,331.03z"/>
				</g>
				<g>
					<path class="st1" d="M378.02,189.39h-60.41c-1.52,0-2.76-1.37-2.76-3.06l0,0c0-1.69,1.24-3.06,2.76-3.06h60.41
						c1.52,0,2.76,1.37,2.76,3.06l0,0C380.77,188.02,379.54,189.39,378.02,189.39z"/>
					<path class="st1" d="M378.02,204.8h-60.41c-1.52,0-2.76-1.37-2.76-3.06l0,0c0-1.69,1.24-3.06,2.76-3.06h60.41
						c1.52,0,2.76,1.37,2.76,3.06l0,0C380.77,203.43,379.54,204.8,378.02,204.8z"/>
					<path class="st1" d="M378.02,220.22h-60.41c-1.52,0-2.76-1.37-2.76-3.06l0,0c0-1.69,1.24-3.06,2.76-3.06h60.41
						c1.52,0,2.76,1.37,2.76,3.06l0,0C380.77,218.84,379.54,220.22,378.02,220.22z"/>
					<path class="st1" d="M378.02,235.63h-60.41c-1.52,0-2.76-1.37-2.76-3.06l0,0c0-1.69,1.24-3.06,2.76-3.06h60.41
						c1.52,0,2.76,1.37,2.76,3.06l0,0C380.77,234.25,379.54,235.63,378.02,235.63z"/>
				</g>
				<g>
					<path class="st1" d="M378.02,284.8h-60.41c-1.52,0-2.76-1.37-2.76-3.06l0,0c0-1.69,1.24-3.06,2.76-3.06h60.41
						c1.52,0,2.76,1.37,2.76,3.06l0,0C380.77,283.43,379.54,284.8,378.02,284.8z"/>
					<path class="st1" d="M378.02,300.21h-60.41c-1.52,0-2.76-1.37-2.76-3.06l0,0c0-1.69,1.24-3.06,2.76-3.06h60.41
						c1.52,0,2.76,1.37,2.76,3.06l0,0C380.77,298.84,379.54,300.21,378.02,300.21z"/>
					<path class="st1" d="M378.02,315.62h-60.41c-1.52,0-2.76-1.37-2.76-3.06l0,0c0-1.69,1.24-3.06,2.76-3.06h60.41
						c1.52,0,2.76,1.37,2.76,3.06l0,0C380.77,314.25,379.54,315.62,378.02,315.62z"/>
					<path class="st1" d="M378.02,331.03h-60.41c-1.52,0-2.76-1.37-2.76-3.06l0,0c0-1.69,1.24-3.06,2.76-3.06h60.41
						c1.52,0,2.76,1.37,2.76,3.06l0,0C380.77,329.66,379.54,331.03,378.02,331.03z"/>
				</g>
				<g>
					<path class="st1" d="M279.21,284.8h-60.41c-1.52,0-2.76-1.37-2.76-3.06l0,0c0-1.69,1.24-3.06,2.76-3.06h60.41
						c1.52,0,2.76,1.37,2.76,3.06l0,0C281.97,283.43,280.74,284.8,279.21,284.8z"/>
					<path class="st1" d="M279.21,300.21h-60.41c-1.52,0-2.76-1.37-2.76-3.06l0,0c0-1.69,1.24-3.06,2.76-3.06h60.41
						c1.52,0,2.76,1.37,2.76,3.06l0,0C281.97,298.84,280.74,300.21,279.21,300.21z"/>
					<path class="st1" d="M279.21,315.62h-60.41c-1.52,0-2.76-1.37-2.76-3.06l0,0c0-1.69,1.24-3.06,2.76-3.06h60.41
						c1.52,0,2.76,1.37,2.76,3.06l0,0C281.97,314.25,280.74,315.62,279.21,315.62z"/>
					<path class="st1" d="M279.21,331.03h-60.41c-1.52,0-2.76-1.37-2.76-3.06l0,0c0-1.69,1.24-3.06,2.76-3.06h60.41
						c1.52,0,2.76,1.37,2.76,3.06l0,0C281.97,329.66,280.74,331.03,279.21,331.03z"/>
				</g>
			</g>
		</g>
	</g>
	<g>
		<g>
			<polygon class="st8" points="114.66,415.84 114.66,424.62 121.2,424.62 121.73,415.3 			"/>
			<path class="st4" d="M129.95,295.72c0,0-0.34,5.89-0.86,14.48c-1.19,19.62-3.3,53.35-4.31,63.16
				c-1.8,17.38-1.89,43.73-1.89,43.73h-9.56c-1.07-22.1-3.05-91.29-3.6-110.54c-0.09-3.19-0.14-5.01-0.14-5.01l16.1-4.6l1.27-0.36
				L129.95,295.72z"/>
			<path class="st9" d="M126.96,296.58l3-0.86c0,0-0.39,6.61-0.91,15.2c-7.62,0.43-15.82-2.7-19.31-4.37
				c-0.09-3.19-0.14-5.01-0.14-5.01l16.1-4.6L126.96,296.58z"/>
			<g>
				<polygon class="st10" points="112.27,413.63 112.7,418.01 124.17,418.01 124.52,413.63 				"/>
			</g>
			<g>
				<g>
					<path class="st7" d="M116.49,423.72c0,0-1.44-1.89-2.57-1.8c-1.13,0.09-9.74,7.11-12.72,7.71c-2.97,0.61-2.37,2.79-1.81,3.91
						c0.56,1.11,23.76-0.69,23.76-0.69s0.56-6.92-0.22-9.02C122.15,421.72,118.83,424.19,116.49,423.72z"/>
					<g>
						<g>
							<path class="st0" d="M111.74,428.6c0.11,0.03,0.22,0.02,0.33-0.04c0.2-0.12,0.27-0.37,0.15-0.57
								c-0.04-0.07-0.97-1.64-2.2-2.24c-1.64-0.8-2.9,0.13-2.95,0.17c-0.18,0.14-0.22,0.4-0.08,0.58c0.14,0.18,0.4,0.22,0.58,0.08
								c0.03-0.03,0.91-0.66,2.08-0.09c1,0.49,1.84,1.9,1.85,1.91C111.55,428.5,111.64,428.57,111.74,428.6z"/>
						</g>
						<g>
							<path class="st0" d="M112.97,427.41c0.11,0.03,0.22,0.02,0.33-0.04c0.2-0.12,0.27-0.37,0.15-0.57
								c-0.04-0.07-0.97-1.64-2.2-2.24c-1.64-0.8-2.9,0.13-2.95,0.17c-0.18,0.14-0.22,0.4-0.08,0.58c0.14,0.18,0.4,0.22,0.58,0.08
								c0.03-0.03,0.91-0.66,2.08-0.09c1.01,0.49,1.84,1.9,1.84,1.91C112.78,427.31,112.87,427.38,112.97,427.41z"/>
						</g>
						<g>
							<path class="st0" d="M110.07,429.57c0.11,0.03,0.22,0.02,0.33-0.04c0.2-0.12,0.27-0.37,0.15-0.57
								c-0.04-0.07-0.97-1.64-2.2-2.24c-1.64-0.81-2.9,0.13-2.95,0.17c-0.18,0.14-0.22,0.4-0.08,0.58c0.14,0.18,0.4,0.22,0.58,0.08
								c0.03-0.03,0.91-0.66,2.08-0.09c1.01,0.49,1.84,1.9,1.84,1.91C109.88,429.47,109.97,429.54,110.07,429.57z"/>
						</g>
					</g>
				</g>
			</g>
		</g>
		<g>
			<polygon class="st8" points="140.74,416.91 141.01,424.24 147.71,423.88 147.86,416.1 			"/>
			<g>
				<g>
					<path class="st7" d="M143.96,422.17c0,0,3.12-0.69,3.97-0.63c0.85,0.06,6.28,6.7,8.19,7.16c3.46,0.84,3.22,6.29,1.09,6.46
						c-6.18,0.51-16.57-2.55-16.57-2.55s-0.66-7.04-0.14-9.21C141.02,421.22,142.21,422.74,143.96,422.17z"/>
					<g>
						<g>
							<path class="st0" d="M148.78,428.36c-0.11,0.02-0.23-0.01-0.33-0.08c-0.19-0.14-0.23-0.41-0.09-0.6
								c0.05-0.06,1.16-1.56,2.47-2.03c1.75-0.64,2.93,0.45,2.98,0.5c0.17,0.16,0.18,0.43,0.02,0.6c-0.16,0.17-0.43,0.18-0.6,0.02
								c-0.03-0.03-0.85-0.77-2.1-0.31c-1.07,0.39-2.07,1.73-2.08,1.74C148.98,428.29,148.88,428.35,148.78,428.36z"/>
						</g>
						<g>
							<path class="st0" d="M147.66,427.02c-0.11,0.02-0.23-0.01-0.33-0.08c-0.19-0.14-0.23-0.41-0.09-0.6
								c0.05-0.06,1.16-1.56,2.47-2.03c1.75-0.64,2.93,0.45,2.98,0.5c0.17,0.16,0.18,0.43,0.02,0.6c-0.16,0.17-0.43,0.18-0.6,0.02
								c-0.03-0.03-0.85-0.77-2.1-0.31c-1.08,0.39-2.07,1.73-2.08,1.74C147.86,426.95,147.76,427.01,147.66,427.02z"/>
						</g>
						<g>
							<path class="st0" d="M150.37,429.53c-0.11,0.02-0.23,0-0.33-0.08c-0.19-0.14-0.23-0.41-0.09-0.6
								c0.05-0.06,1.16-1.56,2.47-2.03c1.75-0.64,2.93,0.45,2.98,0.49c0.17,0.16,0.18,0.43,0.02,0.6c-0.16,0.17-0.43,0.18-0.6,0.02
								c-0.03-0.03-0.85-0.77-2.1-0.31c-1.08,0.39-2.07,1.73-2.08,1.74C150.57,429.46,150.47,429.52,150.37,429.53z"/>
						</g>
					</g>
				</g>
			</g>
			<path class="st4" d="M152.66,301.65c0,0-0.08,3.06-0.23,8.21c-0.65,22.75-2.49,86.32-3.51,107.33h-8.67
				c-0.55-0.13-1.46-27.67-1.35-41.25c0.07-8.28-3.2-44.29-5.17-65.1c-0.84-8.89-1.44-15.01-1.44-15.01l2.51,0.72l1.28,0.37
				L152.66,301.65z"/>
			<path class="st9" d="M152.66,301.65c0,0-0.08,3.06-0.23,8.21c-6.55,0.97-12.87,1.19-18.69,0.98c-0.84-8.89-1.44-15.01-1.44-15.01
				l2.51,0.72l1.28,0.37L152.66,301.65z"/>
			<g>
				<polygon class="st10" points="138.18,413.75 138.61,418.12 150.08,418.12 150.42,413.75 				"/>
			</g>
		</g>
		<g>
			<g>
				<g>
					<path class="st8" d="M145.36,238.75l7.7,26.02l0.14,0.49c0,0.12,0,0.25,0.01,0.38c0.27,6.46,6.2,26.46,5.69,29.81
						c-0.52,3.42-0.59,8.2,0.56,10.4c1.11,2.11,2.23,5.6,3.1,3.8c0.86-1.79-0.91-6.77,0.06-6.9c0.97-0.14,3.23,4.1,2.43,8.78
						c-0.79,4.68,2.02,5.94,1.81,3.63c-0.21-2.31,1.64-5.12,1.55-8.65c-0.09-3.31-3.67-10.76-3.67-10.76s-0.16-20.26-2.19-30.01
						c-2.03-9.75-9.03-37.28-9.03-37.28C149.16,227.5,145.36,238.75,145.36,238.75z"/>
					<g>
						<g>
							<path class="st11" d="M153.19,263.58l0.14,0.47c0,0.12,0,0.24,0.01,0.37c1.42-0.49,2.78-0.9,3.78-1.09
								c0.22-0.04,0.38-0.26,0.33-0.49c-0.04-0.23-0.26-0.38-0.49-0.33C155.94,262.7,154.59,263.1,153.19,263.58z"/>
						</g>
					</g>
				</g>
			</g>
			<g>
				<path class="st6" d="M153.71,301.71c-10.81,7.06-32.7,6.91-45.17,0.41c1.19-7.42,4.32-26.48,3.99-36.36
					c-0.04-1.08-0.08-2.16-0.14-3.23c-0.05-0.93-0.1-1.85-0.16-2.76c-1.08-16.44-3.88-29.87-2.5-31.61c0.6-0.76,1.6-1.58,2.84-2.42
					c0.49-0.33,1.01-0.67,1.55-1c1.29-0.79,2.73-1.59,4.18-2.36c3.43-1.83,6.91-3.53,8.65-4.69c1.73,0.75,3.11,1.17,4.59,1.16
					c0.04,0,0.08,0,0.13,0c0.04,0,0.08,0,0.12,0c1.48,0.01,2.86-0.4,4.6-1.16c1.62,1.08,4.67,2.58,7.78,4.22
					c2.29,1.2,4.6,2.48,6.41,3.72c1.18,0.81,2.15,1.61,2.74,2.35c0.68,0.86,0.4,4.63-0.19,10.23c-0.58,5.5-1.44,12.77-1.97,20.75
					c-0.14,2.22-0.26,4.49-0.34,6.8C150.48,275.64,152.52,294.29,153.71,301.71z"/>
				<g>
					<path class="st12" d="M145.65,282.76C145.65,282.76,145.65,282.76,145.65,282.76c-8.71-0.04-16.14-4-20.84-7.32
						c-5.08-3.59-8.16-7.22-8.2-7.26c-0.15-0.18-0.13-0.44,0.05-0.59c0.18-0.15,0.44-0.13,0.59,0.05c0.03,0.04,3.06,3.6,8.06,7.13
						c4.6,3.24,11.86,7.11,20.34,7.15c0.23,0,0.42,0.19,0.42,0.42C146.06,282.57,145.88,282.76,145.65,282.76z"/>
				</g>
				<g>
					<path class="st12" d="M136.57,285.72c-7.55,0-15.09-4.3-15.43-4.5c-0.2-0.12-0.27-0.37-0.15-0.57c0.12-0.2,0.37-0.27,0.57-0.15
						c0.09,0.05,8.95,5.11,16.81,4.3c0.23-0.03,0.44,0.14,0.46,0.37c0.02,0.23-0.14,0.44-0.37,0.46
						C137.83,285.69,137.2,285.72,136.57,285.72z"/>
				</g>
				<g>
					<path class="st12" d="M129.88,238.87c-0.2,0-0.37-0.14-0.41-0.34c-0.04-0.23,0.11-0.45,0.33-0.49
						c10.61-2.01,13.81-8.84,13.84-8.91c0.1-0.21,0.34-0.3,0.55-0.21c0.21,0.1,0.3,0.34,0.21,0.55c-0.13,0.3-3.41,7.29-14.45,9.39
						C129.94,238.87,129.91,238.87,129.88,238.87z"/>
				</g>
				<path class="st8" d="M144.16,221.91c-2.11,4.81-7.06,11.32-13.79,10.16c-6.52-1.13-9.85-6.12-12.08-9.69
					c3.43-1.83,6.91-3.53,8.65-4.69c1.73,0.75,3.11,1.17,4.59,1.16c0.04,0,0.09,0,0.13,0c0.04,0,0.09,0,0.13,0
					c1.48,0.01,2.86-0.41,4.59-1.16C138.01,218.77,141.05,220.27,144.16,221.91z"/>
			</g>
			<path class="st4" d="M131.79,219.02L131.79,219.02c-0.04,0.01-0.08,0.01-0.12,0C131.71,219.03,131.75,219.02,131.79,219.02z"/>
			<g>
				<path class="st4" d="M140.27,178.91c0,0.6-0.07,1.18-0.19,1.74c-0.23,1.04-0.66,2.01-1.26,2.86c-1.45,2.08-3.87,3.44-6.6,3.44
					c-2.55,0-4.82-1.18-6.29-3.03c-0.74-0.93-1.28-2.02-1.55-3.22c-0.13-0.57-0.2-1.17-0.2-1.78c0-4.44,3.6-8.04,8.04-8.04
					C136.67,170.87,140.27,174.47,140.27,178.91z"/>
				<path class="st7" d="M140.08,180.65c-0.23,1.04-0.66,2.01-1.26,2.86l-0.4,0.4h-12.49c-0.74-0.93-1.28-2.02-1.55-3.22
					c1.35-0.68,4.1-1.78,7.84-1.78C135.9,178.91,138.67,179.97,140.08,180.65z"/>
				<g>
					<g>
						<path class="st11" d="M120.96,198.74c0,0-2.03-2.71-3.54-0.47c-1.51,2.24,0.62,8.85,4.32,7.24L120.96,198.74z"/>
						<g>
							<path class="st13" d="M120.94,203.47c-0.14,0-0.26-0.09-0.3-0.23c-0.57-2.04-2.69-2.87-2.71-2.88
								c-0.16-0.06-0.24-0.24-0.18-0.4c0.06-0.16,0.24-0.24,0.4-0.18c0.1,0.04,2.43,0.94,3.09,3.29c0.05,0.17-0.05,0.34-0.22,0.39
								C120.99,203.46,120.96,203.47,120.94,203.47z"/>
						</g>
						<g>
							<path class="st13" d="M118.8,202.44c-0.06,0-0.12-0.02-0.17-0.05c-0.15-0.09-0.19-0.29-0.09-0.43
								c0.02-0.02,0.39-0.59,1.17-0.95c0.16-0.07,0.34,0,0.41,0.16c0.07,0.16,0,0.34-0.16,0.41c-0.61,0.27-0.9,0.71-0.9,0.71
								C119,202.39,118.9,202.44,118.8,202.44z"/>
						</g>
					</g>
					<g>
						<path class="st11" d="M141.89,198.74c0,0,2.03-2.71,3.54-0.47c1.51,2.24-0.62,8.85-4.32,7.24L141.89,198.74z"/>
						<g>
							<path class="st13" d="M141.91,203.47c0.14,0,0.26-0.09,0.3-0.23c0.57-2.04,2.69-2.87,2.71-2.88c0.16-0.06,0.24-0.24,0.18-0.4
								c-0.06-0.16-0.24-0.24-0.4-0.18c-0.1,0.04-2.43,0.94-3.09,3.29c-0.05,0.17,0.05,0.34,0.22,0.39
								C141.86,203.46,141.89,203.47,141.91,203.47z"/>
						</g>
						<g>
							<path class="st13" d="M144.05,202.44c0.06,0,0.12-0.02,0.17-0.05c0.15-0.09,0.19-0.29,0.09-0.43
								c-0.02-0.02-0.39-0.59-1.17-0.95c-0.16-0.07-0.34,0-0.41,0.16c-0.07,0.16,0,0.34,0.16,0.41c0.61,0.27,0.9,0.71,0.9,0.71
								C143.85,202.39,143.95,202.44,144.05,202.44z"/>
						</g>
					</g>
					<path class="st8" d="M136.42,211.12v6.58c0,0-1.96,3.35-4.61,3.58c-2.65,0.23-5-2.88-5-2.88v-6.81L136.42,211.12z"/>
					<path class="st11" d="M136.42,211.12v2.92c-1.78,1.97-4.94,2.67-9.62,1.98l0-4.44L136.42,211.12z"/>
					<path class="st8" d="M143.36,194.23c-0.12,2.56-0.37,5.75-0.85,8.31c-0.12,0.64-0.26,1.24-0.41,1.77
						c-1.38,4.85-4.85,13.16-14.54,9.69c-4.28-1.53-6.26-6.29-7.15-11.14c-0.6-3.29-0.69-6.62-0.65-9c0.05-2.43,1.37-4.65,3.48-5.84
						c5.72-3.24,11.76-2.03,15.73-0.51C141.73,188.58,143.5,191.29,143.36,194.23z"/>
					<ellipse class="st4" cx="126.35" cy="199.13" rx="0.81" ry="1.27"/>
					<path class="st4" d="M137.14,199.13c0,0.7-0.36,1.27-0.81,1.27c-0.45,0-0.81-0.57-0.81-1.27c0-0.7,0.36-1.27,0.81-1.27
						C136.77,197.86,137.14,198.43,137.14,199.13z"/>
					<path class="st4" d="M124.75,195.34c0.67-0.19,2.03-0.51,3.46-0.52c0.38,0,0.66,0.33,0.6,0.7l0,0.01
						c-0.05,0.3-0.32,0.51-0.62,0.49c-0.97-0.05-3.53,0.09-4.73,0.58c-0.02-0.21,0.1-0.44,0.27-0.64
						C123.99,195.66,124.36,195.46,124.75,195.34z"/>
					<path class="st4" d="M137.81,195.37c-0.67-0.19-2.03-0.51-3.46-0.52c-0.38,0-0.66,0.33-0.6,0.7l0,0.01
						c0.05,0.3,0.32,0.51,0.62,0.49c0.97-0.05,3.53,0.09,4.73,0.58c0.02-0.21-0.1-0.44-0.28-0.64
						C138.56,195.69,138.2,195.48,137.81,195.37z"/>
					<g>
						<path class="st11" d="M131.53,204.93c-0.24,0-0.48-0.04-0.68-0.16c-0.18-0.11-0.41-0.33-0.45-0.76
							c-0.12-1.15,0.18-4.75,0.19-4.9c0.01-0.17,0.16-0.3,0.34-0.29c0.17,0.01,0.3,0.17,0.29,0.34c0,0.04-0.3,3.69-0.19,4.78
							c0.02,0.19,0.1,0.26,0.15,0.29c0.29,0.18,0.97,0,1.25-0.12c0.16-0.07,0.34,0.01,0.41,0.17c0.07,0.16-0.01,0.34-0.17,0.41
							C132.58,204.72,132.06,204.93,131.53,204.93z"/>
					</g>
					<path class="st0" d="M127.57,206.9c0.24,1.19,1.02,3.37,3.67,3.37c2.65,0,3.39-2,3.65-3.37H127.57z"/>
					<g>
						<path class="st11" d="M131.19,212.1c-0.76,0-1.44-0.41-1.47-0.43c-0.15-0.09-0.19-0.28-0.1-0.43c0.09-0.15,0.28-0.19,0.43-0.1
							l0,0c0.01,0,0.56,0.34,1.14,0.34c0.63,0,1.19-0.33,1.2-0.34c0.15-0.09,0.34-0.04,0.43,0.11c0.09,0.15,0.04,0.34-0.11,0.43
							C132.69,211.69,132,212.1,131.19,212.1z"/>
					</g>
				</g>
				<path class="st4" d="M144.61,193.72c-0.1,0.29-0.38,0.47-0.75,0.57c0.03,0.69-0.04,1.52-0.11,2.31
					c-0.39,4.51-1.52,5.31-1.78,4.19c-0.17-0.74-0.16-4.99-0.08-6.38c-0.89-0.06-1.65-0.21-1.65-0.21l-1.05-4.38l-0.37,4.33
					c-1.57,0.55-5.24-0.33-5.24-0.33l-1.23-4.32l-0.76,4.16c-2.35,1.15-5.3,0.38-5.3,0.38l-0.68-4.48l-1.56,4.48
					c0,0-1.45,0.52-2.81,0.72c0,1.4-0.09,5.2-0.79,4.99c-0.74-0.23-1.14-3.26-1.05-5.06c-0.26-0.12-0.42-0.33-0.43-0.64
					c-0.03-1.05-0.14-4.3,0.78-6.5c1.25-2.99,2.78-4.8,5.07-5.85c5.37-2.47,13-1.42,15.2,0.04
					C145.92,185.67,144.61,193.72,144.61,193.72z"/>
			</g>
			<path class="st8" d="M112.22,259.78c-1.08-16.44-3.88-29.87-2.5-31.61c0.6-0.76,1.6-1.58,2.84-2.42
				C113.82,231.66,117.01,249.45,112.22,259.78z"/>
			<path class="st8" d="M153.12,238.21c-0.58,5.5-1.44,12.77-1.97,20.75c-4.24-10.3-1.84-27.36-0.58-33.33
				c1.18,0.81,2.15,1.61,2.74,2.35C153.99,228.85,153.71,232.62,153.12,238.21z"/>
			<g>
				<g>
					<path class="st8" d="M114.57,245.67l-4.77,15.32l-5.22,14.56c-0.84,3.05-4.2,4.62-7.08,3.3c-0.05-0.02-0.1-0.05-0.15-0.07
						c-4.97-2.35-2.23-12.09-2.23-12.09l0.94-0.07c0.38-1.07,1.41-3.79,2.73-7.21c0.16-0.42,0.32-0.85,0.49-1.29
						c0.28-0.73,0.57-1.48,0.86-2.25c0.42-1.09,0.85-2.21,1.29-3.34c3.22-8.35,5.89-17.41,5.89-17.41l2.22-6.6L114.57,245.67z"/>
					<g>
						<path class="st11" d="M101.17,269.82c-0.02,0-0.04,0-0.06,0c-0.19,0-0.36-0.14-0.39-0.33c-0.73-4.62-1.46-8.03-1.94-10.07
							c0.16-0.42,0.33-0.85,0.49-1.29c0.45,1.8,1.34,5.64,2.22,11.24C101.53,269.58,101.39,269.78,101.17,269.82z"/>
					</g>
					<path class="st8" d="M100.46,270.04c0,0-0.68-11.1-3.05-13.46c-2.37-2.36-4.53-3.26-6.75-3.18c-2.22,0.08-4.31,0.36-4.17,1.27
						c0,0-5.1-0.77-7.38,0.55c-2.28,1.32,6.75,2.48,9.42,2.55c2.68,0.07,4.09,1.57,4.2,3.16c0.11,1.6,1.65,12.17,1.65,12.17
						L100.46,270.04z"/>
				</g>
				<g>
					<path class="st3" d="M103.16,255.39l-33.81,0.23c-1.27,0.01-2.31-1.02-2.32-2.29l0-0.02c-0.01-1.27,1.02-2.31,2.29-2.32
						l33.81-0.23c1.27-0.01,2.31,1.02,2.32,2.29l0,0.02C105.46,254.35,104.43,255.39,103.16,255.39z"/>
					<path class="st4" d="M67.06,255.64l-7.4-26.99c-0.42-1.52,0.72-3.01,2.29-3.02l15.89-0.11c1.07-0.01,2.02,0.7,2.31,1.73
						l8.14,28.25L67.06,255.64z"/>
					<path class="st3" d="M80.15,227.24l8.07,28.02l1.82-0.01l-8.07-28.02c-0.3-1.03-1.24-1.74-2.32-1.73l-1.82,0.01
						C78.91,225.51,79.86,226.21,80.15,227.24z"/>
					<path class="st10" d="M76.17,241.76c0.42,1.78-0.68,3.23-2.46,3.25c-1.78,0.01-3.57-1.42-4-3.2c-0.42-1.78,0.68-3.23,2.46-3.25
						C73.95,238.55,75.74,239.98,76.17,241.76z"/>
				</g>
			</g>
		</g>
	</g>
	<g>
		<g>
			<path class="st14" d="M355.08,255.78c-3.86,10.65-11.67,20.5-11.67,20.5c-4.95,1.99-18.09,5.94-22.5,4.8
				c0.44-3.04,0.29-5.18,0-8.97c6.11,0.13,17.47-5.98,17.47-5.98c9.41-20.72,13.42-37.2,13.42-37.2
				C356.53,240.38,355.08,255.78,355.08,255.78z"/>
			<g>
				<path class="st8" d="M366.55,414.19l-0.95,8.5c0,0-2.78,1.59-7.16,0.72l0.92-9.94L366.55,414.19z"/>
				<g>
					<path class="st6" d="M360.51,422.45c0,0-1.39-2.02-2.56-1.97c-1.16,0.04-10.38,6.86-13.47,7.34c-3.09,0.48-2.57,2.76-2.05,3.94
						c0.52,1.18,24.51,0.41,24.51,0.41s0.9-7.1,0.2-9.31C366.44,420.66,362.89,423.05,360.51,422.45z"/>
					<g>
						<g>
							<path class="st0" d="M355.38,427.25c0.11,0.04,0.23,0.03,0.34-0.03c0.21-0.11,0.29-0.37,0.18-0.58
								c-0.04-0.07-0.92-1.73-2.16-2.41c-1.65-0.91-2.99,0-3.05,0.04c-0.2,0.13-0.24,0.4-0.11,0.6c0.13,0.2,0.4,0.24,0.6,0.11
								c0.04-0.02,0.97-0.63,2.15,0.01c1.01,0.55,1.8,2.04,1.81,2.06C355.19,427.15,355.28,427.22,355.38,427.25z"/>
						</g>
						<g>
							<path class="st0" d="M356.71,426.09c0.11,0.04,0.23,0.03,0.34-0.03c0.21-0.11,0.29-0.37,0.18-0.58
								c-0.04-0.07-0.92-1.73-2.16-2.41c-1.65-0.91-2.99,0-3.05,0.04c-0.2,0.13-0.24,0.4-0.11,0.6c0.13,0.2,0.4,0.25,0.6,0.11
								c0.04-0.02,0.97-0.63,2.15,0.01c1.01,0.56,1.8,2.04,1.81,2.06C356.52,425.98,356.61,426.05,356.71,426.09z"/>
						</g>
						<g>
							<g>
								<path class="st0" d="M353.61,428.18c0.11,0.04,0.23,0.03,0.34-0.03c0.21-0.11,0.29-0.37,0.18-0.58
									c-0.04-0.07-0.92-1.73-2.16-2.41c-1.65-0.91-2.99,0-3.05,0.04c-0.2,0.13-0.24,0.4-0.11,0.6c0.13,0.2,0.4,0.24,0.6,0.11
									c0.04-0.02,0.97-0.63,2.15,0.01c1.01,0.56,1.8,2.04,1.81,2.06C353.42,428.07,353.51,428.14,353.61,428.18z"/>
							</g>
						</g>
					</g>
				</g>
			</g>
			<g>
				<path class="st8" d="M402.76,403.02l5.51,6.55c0,0-0.76,3.11-4.41,5.69l-6.57-7.52L402.76,403.02z"/>
				<g>
					<path class="st6" d="M404.59,413.08c0,0-2.42-0.38-3.19,0.5s-2.18,12.25-3.96,14.82c-1.78,2.57,0.23,3.77,1.44,4.2
						c1.21,0.43,17.19-17.48,17.19-17.48s-4.52-5.55-6.61-6.56S406.66,411.77,404.59,413.08z"/>
					<g>
						<g>
							<path class="st0" d="M404.53,420.11c0.1-0.05,0.18-0.15,0.21-0.26c0.06-0.23-0.07-0.47-0.3-0.53
								c-0.08-0.02-1.89-0.53-3.24-0.1c-1.79,0.57-2.06,2.17-2.07,2.23c-0.04,0.23,0.12,0.46,0.36,0.49
								c0.23,0.04,0.45-0.12,0.49-0.36c0.01-0.04,0.21-1.14,1.49-1.55c1.1-0.35,2.72,0.1,2.74,0.11
								C404.33,420.17,404.44,420.16,404.53,420.11z"/>
						</g>
						<g>
							<path class="st0" d="M404.6,418.34c0.1-0.05,0.18-0.15,0.21-0.26c0.06-0.23-0.07-0.47-0.3-0.53
								c-0.08-0.02-1.89-0.53-3.24-0.1c-1.8,0.57-2.06,2.17-2.07,2.24c-0.04,0.23,0.12,0.45,0.36,0.49
								c0.23,0.04,0.46-0.12,0.49-0.36c0.01-0.04,0.21-1.14,1.49-1.55c1.1-0.35,2.72,0.1,2.74,0.11
								C404.39,418.41,404.51,418.39,404.6,418.34z"/>
						</g>
						<g>
							<path class="st0" d="M403.98,422.03c0.1-0.05,0.18-0.15,0.21-0.26c0.06-0.23-0.07-0.47-0.3-0.53
								c-0.08-0.02-1.89-0.53-3.24-0.1c-1.8,0.57-2.06,2.17-2.07,2.24c-0.04,0.23,0.12,0.45,0.36,0.49
								c0.23,0.04,0.46-0.12,0.49-0.36c0.01-0.04,0.21-1.14,1.49-1.55c1.1-0.35,2.72,0.1,2.74,0.11
								C403.77,422.09,403.89,422.08,403.98,422.03z"/>
						</g>
					</g>
				</g>
			</g>
			<g>
				<path class="st9" d="M371.8,312.71l4.25,45.94c0,0,6.36,7.12,11.14,15.83c4.01,7.31,16.49,28.86,16.49,28.86l-5.63,4.35
					l-38.83-37.6l-8.63-57.83L371.8,312.71z"/>
				<path class="st4" d="M395.95,408.29c0.58,1.46,1.67,2.45,2.93,3.28l7.51-6.34c-0.63-1.33-1.49-2.48-2.56-3.47L395.95,408.29z"/>
			</g>
			<g>
				<path class="st4" d="M400.4,314.62c0,0-9.97,24.52-22.93,43.64c0,0-1.94,18.61-5.25,28.51c-1.45,4.34-4.11,24.44-4.11,24.44
					h-9.98l2.54-57.14l10.4-41.38L400.4,314.62z"/>
				<path class="st10" d="M357.22,410.87c-0.62,1.71-0.45,3.4,0,5.1l11.38,0.32c0.48-1.64,0.63-3.29,0.47-4.97L357.22,410.87z"/>
			</g>
			<g>
				<g>
					<g>
						<path class="st7" d="M400.74,301.66c0,0.35,0,0.7,0,1.04c-0.01,6.23-0.04,11.05-0.07,13.42c-6.01,1.63-12.03,2.68-18.04,3.17
							c-0.27,0.02-0.54,0.04-0.82,0.06c-0.15,0.01-0.29,0.02-0.44,0.03c-0.32,0.02-0.65,0.04-0.97,0.06
							c-0.36,0.02-0.71,0.04-1.08,0.06c-4.09,0.19-8.18,0.12-12.28-0.22c-0.83-0.07-1.65-0.15-2.48-0.24
							c-0.05-0.01-0.1-0.01-0.16-0.02c-0.21-0.02-0.42-0.05-0.63-0.07c-0.13-0.02-0.26-0.03-0.38-0.05
							c-4.76-0.57-9.52-1.5-14.28-2.78c-0.01-1.08-0.02-2.67-0.02-4.68c0-0.37,0-0.76,0-1.16v0c0-2.88,0.02-6.46,0.05-10.5
							c0-0.35,0.01-0.69,0.01-1.05c0.02-2.69,0.05-5.58,0.09-8.59c0.01-0.35,0.01-0.7,0.01-1.05c0.04-3.09,0.08-6.29,0.14-9.55
							c0.03-1.99,0.07-3.99,0.11-6c0.04-2.03,0.08-4.07,0.13-6.09c0.01-0.44,0.02-0.88,0.03-1.32c0.47-19.13,1.27-36.72,2.61-38.68
							c0.92-1.36,3.04-2.95,5.54-4.56c0.3-0.19,0.61-0.39,0.93-0.59c1.06-0.66,9.73-3.61,10.83-4.26l9.16-0.64
							c0.06,0.03,8.82,2.99,8.87,3.02c0.38,0.22,0.76,0.43,1.13,0.65c3.24,1.87,6.45,3.84,8.29,5.54c0.27,0.25,0.51,0.49,0.71,0.72
							c0.16,0.19,0.31,0.37,0.43,0.55c0.11,0.16,0.22,0.43,0.32,0.8c1.11,4.03,1.69,19.86,1.98,37.08c0.02,1.23,0.04,2.48,0.06,3.72
							c0.01,0.55,0.02,1.09,0.02,1.64c0.01,0.38,0.01,0.76,0.02,1.13c0,0.19,0.01,0.38,0.01,0.57c0.01,0.94,0.02,1.87,0.03,2.8
							c0.01,0.69,0.02,1.38,0.02,2.06C400.72,286.37,400.74,294.8,400.74,301.66z"/>
					</g>
				</g>
			</g>
			<g>
				<g>
					<g>
						<path class="st14" d="M374.57,226.57c-3.97,0-6.76-3.62-6.88-3.77c-0.17-0.22-0.14-0.54,0.07-0.72
							c0.21-0.18,0.51-0.15,0.67,0.07c0.04,0.05,2.64,3.4,6.14,3.4c3.46,0,5.57-3.79,5.59-3.83c0.13-0.24,0.43-0.33,0.65-0.18
							c0.23,0.14,0.31,0.46,0.17,0.7C380.88,222.41,378.58,226.57,374.57,226.57z"/>
					</g>
				</g>
				<g>
					<path class="st14" d="M357.79,261.25c-0.07,0-0.15-0.02-0.22-0.06c-0.24-0.13-0.33-0.44-0.21-0.69l1.73-3.66
						c0.12-0.25,0.41-0.36,0.65-0.23c0.24,0.13,0.33,0.44,0.21,0.69l-1.73,3.66C358.14,261.15,357.97,261.25,357.79,261.25z"/>
				</g>
				<g>
					<path class="st14" d="M354.18,258.26c-0.06,0.04-0.13,0.07-0.21,0.08c-0.27,0.03-0.5-0.18-0.52-0.47l-0.34-4.08
						c-0.02-0.28,0.17-0.53,0.44-0.56c0.27-0.03,0.5,0.18,0.52,0.47l0.34,4.08C354.43,257.97,354.33,258.16,354.18,258.26z"/>
				</g>
				<g>
					<path class="st14" d="M363.48,251.93c-0.23,0-0.44-0.18-0.48-0.43l-0.63-4.04c-0.04-0.28,0.13-0.55,0.4-0.59
						c0.26-0.05,0.51,0.14,0.56,0.43l0.63,4.04c0.04,0.28-0.13,0.55-0.4,0.59C363.53,251.92,363.51,251.93,363.48,251.93z"/>
				</g>
				<g>
					<path class="st14" d="M379.02,253.43c-0.08,0-0.17-0.02-0.25-0.07c-0.23-0.15-0.31-0.46-0.17-0.71l1.95-3.53
						c0.14-0.25,0.43-0.33,0.66-0.18c0.23,0.15,0.31,0.46,0.17,0.71l-1.95,3.53C379.35,253.34,379.19,253.43,379.02,253.43z"/>
				</g>
				<g>
					<path class="st14" d="M359.93,237.63c-0.09,0-0.18-0.03-0.26-0.08l-3.22-2.23c-0.22-0.16-0.29-0.47-0.14-0.71
						c0.15-0.24,0.44-0.31,0.67-0.15l3.22,2.23c0.22,0.15,0.29,0.47,0.14,0.71C360.24,237.54,360.09,237.63,359.93,237.63z"/>
				</g>
				<g>
					<path class="st14" d="M374.26,270.48c-0.07,0-0.15-0.02-0.22-0.06c-0.24-0.13-0.33-0.44-0.21-0.69l1.73-3.66
						c0.12-0.25,0.41-0.36,0.65-0.23c0.24,0.13,0.33,0.44,0.21,0.69l-1.73,3.66C374.61,270.38,374.44,270.48,374.26,270.48z"/>
				</g>
				<g>
					<path class="st14" d="M366.66,240.38c-0.16,0-0.32-0.09-0.41-0.24c-0.14-0.24-0.07-0.56,0.15-0.71l3.25-2.17
						c0.23-0.15,0.52-0.08,0.67,0.16c0.14,0.24,0.07,0.56-0.15,0.71l-3.25,2.17C366.84,240.35,366.75,240.38,366.66,240.38z"/>
				</g>
				<g>
					<path class="st14" d="M358.93,225.17c0.01,0.1-0.01,0.2-0.06,0.28c-0.07,0.15-0.22,0.26-0.39,0.27
						c-0.27,0.02-0.5-0.19-0.51-0.48l-0.15-2.35c0.3-0.19,0.61-0.39,0.93-0.59L358.93,225.17z"/>
				</g>
				<g>
					<path class="st14" d="M354.61,247.61c-0.16,0-0.32-0.09-0.41-0.24c-0.14-0.24-0.07-0.56,0.15-0.71l3.25-2.17
						c0.23-0.15,0.52-0.08,0.67,0.16c0.14,0.24,0.07,0.56-0.15,0.71l-3.25,2.17C354.78,247.58,354.69,247.61,354.61,247.61z"/>
				</g>
				<g>
					<path class="st14" d="M380.51,229.76c-0.09,0-0.18-0.03-0.27-0.09c-0.22-0.16-0.28-0.48-0.14-0.72l1.85-3.01
						c0.15-0.24,0.45-0.3,0.67-0.15c0.22,0.16,0.28,0.48,0.14,0.72l-1.85,3.01C380.82,229.68,380.66,229.76,380.51,229.76z"/>
				</g>
				<g>
					<path class="st14" d="M382.17,281.69c-0.13,0-0.25-0.05-0.35-0.16l-2.65-2.96c-0.18-0.21-0.18-0.53,0.01-0.73
						c0.19-0.2,0.5-0.19,0.68,0.01l2.65,2.96c0.18,0.21,0.18,0.53-0.01,0.73C382.41,281.64,382.29,281.69,382.17,281.69z"/>
				</g>
				<g>
					<path class="st14" d="M372.41,281.08c-0.13,0-0.25-0.05-0.35-0.16l-2.65-2.96c-0.18-0.21-0.18-0.53,0.01-0.73
						c0.19-0.2,0.5-0.19,0.68,0.01l2.65,2.96c0.18,0.21,0.18,0.53-0.01,0.73C372.66,281.03,372.53,281.08,372.41,281.08z"/>
				</g>
				<g>
					<path class="st14" d="M365.4,301.06c-0.04-0.13-0.04-0.27,0.02-0.4l1.66-3.7c0.12-0.26,0.4-0.37,0.64-0.24
						c0.24,0.12,0.34,0.43,0.23,0.69l-1.66,3.7c-0.12,0.26-0.4,0.37-0.64,0.24C365.53,301.28,365.45,301.18,365.4,301.06z"/>
				</g>
				<g>
					<path class="st14" d="M393.39,313.25c-0.04-0.13-0.04-0.27,0.02-0.4l1.66-3.7c0.12-0.26,0.4-0.37,0.64-0.24
						c0.24,0.12,0.34,0.43,0.23,0.69l-1.66,3.7c-0.12,0.26-0.4,0.37-0.64,0.24C393.51,313.48,393.43,313.37,393.39,313.25z"/>
				</g>
				<g>
					<path class="st14" d="M381.37,319.37c-0.32,0.02-0.65,0.04-0.97,0.06l-0.34-2.3c-0.04-0.28,0.14-0.55,0.4-0.59
						c0.26-0.04,0.51,0.15,0.55,0.43L381.37,319.37z"/>
				</g>
				<g>
					<path class="st14" d="M385.23,312.42c-0.1-0.08-0.18-0.2-0.2-0.34l-0.59-4.05c-0.04-0.28,0.14-0.55,0.4-0.59
						c0.26-0.04,0.51,0.15,0.55,0.43l0.59,4.05c0.04,0.28-0.14,0.55-0.4,0.59C385.45,312.53,385.32,312.49,385.23,312.42z"/>
				</g>
				<g>
					<path class="st14" d="M361.93,278.56c-0.08,0-0.17-0.02-0.24-0.07c-0.23-0.14-0.31-0.46-0.18-0.71l1.92-3.55
						c0.13-0.25,0.43-0.33,0.66-0.19c0.23,0.14,0.31,0.46,0.18,0.71l-1.92,3.55C362.26,278.47,362.09,278.56,361.93,278.56z"/>
				</g>
				<g>
					<path class="st14" d="M367.56,269.7c-0.17,0-0.34-0.1-0.43-0.28l-1.76-3.64c-0.12-0.25-0.03-0.57,0.21-0.7
						c0.24-0.13,0.53-0.03,0.65,0.22l1.76,3.64c0.12,0.25,0.03,0.57-0.21,0.7C367.71,269.68,367.64,269.7,367.56,269.7z"/>
				</g>
				<g>
					<path class="st14" d="M352.3,269.16c-0.05,0.06-0.11,0.11-0.18,0.14c-0.16,0.07-0.35,0.05-0.5-0.08l-1.98-1.77
						c0.01-0.44,0.02-0.88,0.03-1.32l2.57,2.3C352.44,268.62,352.47,268.94,352.3,269.16z"/>
				</g>
				<g>
					<path class="st14" d="M367.54,231.06c-0.17,0-0.34-0.1-0.43-0.28l-1.76-3.64c-0.12-0.25-0.03-0.57,0.21-0.7
						c0.24-0.13,0.53-0.03,0.65,0.22l1.76,3.64c0.12,0.25,0.03,0.57-0.21,0.7C367.69,231.04,367.61,231.06,367.54,231.06z"/>
				</g>
				<g>
					<path class="st14" d="M378.8,244.4c-0.03,0-0.06,0-0.09-0.01c-0.26-0.05-0.43-0.32-0.38-0.6l0.73-4.02
						c0.05-0.28,0.3-0.46,0.57-0.41c0.26,0.05,0.43,0.32,0.38,0.6l-0.73,4.02C379.23,244.23,379.02,244.4,378.8,244.4z"/>
				</g>
				<g>
					<path class="st14" d="M372.53,247.93c-0.03,0-0.06,0-0.09-0.01c-0.26-0.05-0.43-0.32-0.38-0.6l0.73-4.02
						c0.05-0.28,0.3-0.46,0.57-0.41c0.26,0.05,0.43,0.33,0.38,0.61l-0.73,4.02C372.96,247.76,372.76,247.93,372.53,247.93z"/>
				</g>
				<g>
					<path class="st14" d="M377.02,234.66c-0.16,0-0.32-0.08-0.41-0.24l-2.05-3.46c-0.14-0.24-0.08-0.56,0.15-0.71
						c0.23-0.15,0.52-0.08,0.67,0.16l2.05,3.46c0.14,0.24,0.08,0.56-0.15,0.71C377.2,234.63,377.11,234.66,377.02,234.66z"/>
				</g>
				<g>
					<path class="st14" d="M358.18,270.34c-0.13-0.15-0.17-0.38-0.08-0.58l1.65-3.7c0.11-0.26,0.4-0.37,0.64-0.24
						c0.24,0.12,0.34,0.43,0.23,0.69l-1.65,3.7c-0.11,0.26-0.4,0.37-0.64,0.24C358.27,270.42,358.22,270.38,358.18,270.34z"/>
				</g>
				<g>
					<path class="st14" d="M370.61,259.61c-0.19,0-0.38-0.12-0.45-0.33l-1.4-3.82c-0.1-0.27,0.03-0.57,0.27-0.67
						c0.25-0.1,0.53,0.03,0.63,0.29l1.4,3.82c0.1,0.27-0.03,0.57-0.27,0.67C370.72,259.59,370.66,259.61,370.61,259.61z"/>
				</g>
				<g>
					<path class="st14" d="M385.95,283.18c-0.07,0-0.15-0.02-0.22-0.06c-0.24-0.13-0.33-0.44-0.21-0.69l1.73-3.66
						c0.12-0.25,0.41-0.36,0.65-0.23c0.24,0.13,0.33,0.44,0.21,0.69l-1.73,3.66C386.29,283.07,386.12,283.18,385.95,283.18z"/>
				</g>
				<g>
					<path class="st14" d="M360.52,309.46c0,0.08-0.02,0.16-0.05,0.23c-0.12,0.25-0.41,0.35-0.65,0.22l-3.4-1.89
						c-0.24-0.13-0.33-0.44-0.21-0.7c0.12-0.25,0.41-0.35,0.65-0.22l3.4,1.89C360.43,309.09,360.52,309.27,360.52,309.46z"/>
				</g>
				<g>
					<path class="st14" d="M351.28,311.8c0,0.08-0.02,0.16-0.05,0.23c-0.12,0.25-0.41,0.35-0.65,0.22l-1.48-0.82
						c0-0.37,0-0.76,0-1.16l1.92,1.06C351.19,311.43,351.29,311.61,351.28,311.8z"/>
				</g>
				<g>
					<path class="st14" d="M365.58,316.36l-1.16,2.66c-0.21-0.02-0.42-0.05-0.63-0.07c-0.13-0.02-0.25-0.03-0.38-0.05l1.3-2.98
						c0.11-0.26,0.4-0.37,0.64-0.25C365.59,315.79,365.69,316.1,365.58,316.36z"/>
				</g>
				<g>
					<path class="st14" d="M392.23,273.85c-0.23,0-0.44-0.18-0.48-0.43l-0.63-4.04c-0.04-0.28,0.13-0.55,0.4-0.59
						c0.26-0.05,0.51,0.14,0.56,0.43l0.62,4.04c0.04,0.28-0.13,0.55-0.4,0.59C392.28,273.85,392.25,273.85,392.23,273.85z"/>
				</g>
				<g>
					<path class="st14" d="M392.63,244.02c-0.08,0-0.17-0.02-0.25-0.07c-0.23-0.15-0.31-0.46-0.17-0.71l1.95-3.53
						c0.14-0.25,0.43-0.33,0.66-0.18c0.23,0.15,0.31,0.46,0.17,0.71l-1.95,3.53C392.95,243.93,392.79,244.02,392.63,244.02z"/>
				</g>
				<g>
					<path class="st14" d="M386.35,258.35c-0.09,0-0.18-0.03-0.26-0.08l-3.22-2.23c-0.22-0.16-0.29-0.47-0.14-0.71
						c0.15-0.24,0.44-0.31,0.67-0.15l3.22,2.23c0.22,0.16,0.29,0.47,0.14,0.71C386.66,258.27,386.51,258.35,386.35,258.35z"/>
				</g>
				<g>
					<path class="st14" d="M352.28,282.39c-0.07,0-0.15-0.02-0.22-0.06c-0.24-0.13-0.33-0.44-0.21-0.69l1.73-3.66
						c0.12-0.25,0.41-0.36,0.65-0.23c0.24,0.13,0.33,0.44,0.21,0.69l-1.73,3.66C352.63,282.29,352.46,282.39,352.28,282.39z"/>
				</g>
				<g>
					<path class="st14" d="M391.83,263.91c-0.16,0-0.32-0.09-0.41-0.24c-0.14-0.24-0.07-0.56,0.15-0.71l3.25-2.17
						c0.23-0.15,0.52-0.08,0.67,0.16c0.14,0.24,0.07,0.56-0.15,0.71l-3.25,2.17C392.01,263.88,391.92,263.91,391.83,263.91z"/>
				</g>
				<g>
					<path class="st14" d="M384.05,269.08c-0.12,0.12-0.29,0.17-0.45,0.12c-0.26-0.08-0.41-0.36-0.34-0.63l1.01-3.95
						c0.07-0.27,0.33-0.44,0.59-0.36c0.26,0.07,0.41,0.36,0.34,0.63l-1.01,3.95C384.16,268.93,384.11,269.02,384.05,269.08z"/>
				</g>
				<g>
					<path class="st14" d="M397.75,227.34l-0.84,1.36c-0.09,0.15-0.25,0.23-0.4,0.23c-0.09,0-0.18-0.03-0.26-0.08
						c-0.22-0.16-0.28-0.48-0.14-0.71l0.93-1.52C397.31,226.86,397.55,227.1,397.75,227.34z"/>
				</g>
				<g>
					<path class="st14" d="M359.66,295.16c-0.13,0-0.25-0.05-0.35-0.16l-2.65-2.96c-0.18-0.21-0.18-0.53,0.01-0.73
						c0.19-0.2,0.5-0.19,0.68,0.01l2.65,2.96c0.18,0.21,0.18,0.53-0.01,0.73C359.9,295.11,359.78,295.16,359.66,295.16z"/>
				</g>
				<g>
					<path class="st14" d="M377.32,305.49c-0.13,0-0.25-0.05-0.35-0.16l-2.65-2.96c-0.18-0.21-0.18-0.53,0.01-0.73
						c0.19-0.2,0.5-0.19,0.68,0.01l2.65,2.96c0.18,0.21,0.18,0.53-0.01,0.73C377.56,305.45,377.44,305.49,377.32,305.49z"/>
				</g>
				<g>
					<path class="st14" d="M382.23,301.39c-0.08-0.11-0.12-0.24-0.1-0.39l0.48-4.07c0.03-0.28,0.27-0.48,0.54-0.45
						c0.26,0.04,0.45,0.29,0.42,0.58l-0.48,4.07c-0.03,0.28-0.27,0.48-0.54,0.45C382.41,301.56,382.3,301.49,382.23,301.39z"/>
				</g>
				<g>
					<path class="st14" d="M372.17,312.85c-0.13,0-0.25-0.05-0.35-0.16l-2.65-2.96c-0.18-0.21-0.18-0.53,0.01-0.73
						c0.19-0.2,0.5-0.19,0.68,0.01l2.65,2.96c0.18,0.21,0.18,0.53-0.01,0.73C372.41,312.8,372.29,312.85,372.17,312.85z"/>
				</g>
				<g>
					<path class="st14" d="M400.74,301.66c0,0.35,0,0.7,0,1.04l-3,0.27c-0.27,0.03-0.5-0.19-0.52-0.47
						c-0.02-0.28,0.17-0.53,0.44-0.56L400.74,301.66z"/>
				</g>
				<g>
					<path class="st14" d="M365.66,288.94c-0.13,0-0.25-0.05-0.35-0.16l-2.65-2.96c-0.18-0.21-0.18-0.53,0.01-0.73
						c0.19-0.2,0.5-0.19,0.68,0.01l2.65,2.96c0.18,0.21,0.18,0.53-0.01,0.73C365.9,288.89,365.78,288.94,365.66,288.94z"/>
				</g>
				<g>
					<path class="st14" d="M378.42,287.66c-0.01,0.14-0.07,0.27-0.17,0.36l-2.93,2.64c-0.2,0.18-0.51,0.16-0.68-0.06
						c-0.17-0.22-0.15-0.54,0.06-0.73l2.93-2.64c0.2-0.18,0.51-0.16,0.68,0.06C378.4,287.4,378.43,287.53,378.42,287.66z"/>
				</g>
				<g>
					<path class="st14" d="M392.4,302.17c-0.08,0-0.17-0.02-0.24-0.07c-0.23-0.14-0.31-0.46-0.18-0.71l1.92-3.55
						c0.13-0.25,0.43-0.33,0.66-0.19c0.23,0.14,0.31,0.46,0.18,0.71l-1.92,3.55C392.73,302.07,392.56,302.17,392.4,302.17z"/>
				</g>
				<g>
					<path class="st14" d="M395.72,291.62c-0.17,0-0.34-0.1-0.43-0.28l-1.76-3.64c-0.12-0.25-0.03-0.57,0.21-0.7
						c0.24-0.13,0.53-0.03,0.65,0.22l1.76,3.64c0.12,0.25,0.03,0.57-0.21,0.7C395.87,291.6,395.79,291.62,395.72,291.62z"/>
				</g>
				<g>
					<path class="st14" d="M390.48,250.27c-0.18,0-0.34-0.1-0.43-0.28l-1.76-3.64c-0.12-0.25-0.03-0.57,0.21-0.7
						c0.24-0.13,0.53-0.03,0.65,0.22l1.76,3.64c0.12,0.25,0.03,0.57-0.21,0.7C390.63,250.25,390.55,250.27,390.48,250.27z"/>
				</g>
				<g>
					<path class="st14" d="M392.4,234.99c-0.03,0-0.06,0-0.09-0.01c-0.26-0.05-0.43-0.32-0.38-0.6l0.73-4.02
						c0.05-0.28,0.3-0.46,0.57-0.41c0.26,0.05,0.43,0.32,0.38,0.6l-0.73,4.02C392.83,234.82,392.63,234.99,392.4,234.99z"/>
				</g>
				<g>
					<path class="st14" d="M386.13,238.52c-0.03,0-0.06,0-0.09-0.01c-0.26-0.05-0.43-0.32-0.38-0.6l0.73-4.02
						c0.05-0.28,0.3-0.46,0.57-0.41c0.26,0.05,0.43,0.33,0.38,0.61l-0.73,4.02C386.56,238.35,386.36,238.52,386.13,238.52z"/>
				</g>
				<g>
					<path class="st14" d="M389.01,224.5c-0.09,0.02-0.18,0.02-0.27-0.02c-0.15-0.06-0.27-0.19-0.31-0.37l-0.81-3.7
						c0.38,0.22,0.76,0.43,1.13,0.65l0.62,2.81C389.43,224.16,389.27,224.44,389.01,224.5z"/>
				</g>
				<g>
					<path class="st14" d="M386.34,292.26c-0.13-0.15-0.17-0.38-0.08-0.58l1.65-3.7c0.11-0.26,0.4-0.37,0.64-0.24
						c0.24,0.12,0.34,0.43,0.23,0.69l-1.65,3.7c-0.11,0.26-0.4,0.37-0.64,0.24C386.43,292.35,386.38,292.31,386.34,292.26z"/>
				</g>
				<g>
					<path class="st14" d="M352.38,299.21l-3.23,0.56c0-0.35,0-0.69,0.01-1.05l3.06-0.53c0.26-0.04,0.51,0.15,0.55,0.43
						C352.82,298.9,352.64,299.17,352.38,299.21z"/>
				</g>
				<g>
					<path class="st14" d="M351.4,289.76l-2.15,0.37c0-0.35,0.01-0.7,0.01-1.05l1.98-0.34c0.26-0.05,0.51,0.15,0.55,0.43
						C351.84,289.45,351.66,289.72,351.4,289.76z"/>
				</g>
				<g>
					<path class="st14" d="M398.76,281.53c-0.19,0-0.38-0.12-0.45-0.33l-1.4-3.82c-0.1-0.27,0.03-0.57,0.27-0.67
						c0.25-0.1,0.53,0.03,0.63,0.29l1.4,3.82c0.1,0.27-0.03,0.57-0.27,0.67C398.88,281.52,398.82,281.53,398.76,281.53z"/>
				</g>
			</g>
			<g>
				<g>
					<g>
						<path class="st14" d="M400.54,269.49c-0.91-3.75-2.05-7.91-3.18-11.5c0-0.01-0.01-0.01-0.01-0.02
							c-0.35-1.11-0.7-2.16-1.04-3.13c-0.01-0.02-0.01-0.04-0.02-0.05c-0.11-0.3-0.21-0.6-0.32-0.89c-0.02-0.05-0.03-0.1-0.03-0.15
							v0c0-0.17,0.11-0.33,0.28-0.4c0.22-0.08,0.47,0.03,0.55,0.26c1.16,3.15,2.52,7.7,3.7,12.15
							C400.5,267.01,400.52,268.25,400.54,269.49z"/>
					</g>
				</g>
			</g>
			<g>
				<path class="st4" d="M362.34,192.58c0,0-5.12-1.79-4.61-5.77c0.44-3.39,4.2-1.19,3.87-3.84s-1.07-5.06,2.17-5.72
					c2.83-0.58,2.88,1.48,6.6-1.51c4.39-3.52,7.77,4.63,11.69,4.88c5.79,0.36,6.52,3.82,7.08,6.6c0.57,2.77-2.23,6.02-2.23,6.02
					L362.34,192.58z"/>
				<g>
					<path class="st11" d="M363.2,198.4c0,0-2.15-2.87-3.75-0.5c-1.6,2.37,0.66,9.37,4.58,7.66L363.2,198.4z"/>
					<g>
						<path class="st13" d="M363.17,203.41c-0.14,0-0.28-0.1-0.32-0.24c-0.61-2.16-2.85-3.04-2.87-3.05
							c-0.17-0.07-0.26-0.26-0.19-0.43c0.06-0.17,0.26-0.26,0.43-0.19c0.1,0.04,2.57,1,3.27,3.49c0.05,0.18-0.05,0.36-0.23,0.41
							C363.23,203.4,363.2,203.41,363.17,203.41z"/>
					</g>
					<g>
						<g>
							<path class="st13" d="M360.91,202.32c-0.06,0-0.12-0.02-0.18-0.05c-0.15-0.1-0.2-0.3-0.1-0.46c0.02-0.03,0.41-0.63,1.24-1
								c0.17-0.07,0.36,0,0.44,0.17c0.07,0.17,0,0.36-0.17,0.44c-0.64,0.29-0.95,0.75-0.96,0.76
								C361.13,202.27,361.02,202.32,360.91,202.32z"/>
						</g>
					</g>
				</g>
				<g>
					<path class="st11" d="M385.36,198.4c0,0,2.15-2.87,3.75-0.5c1.6,2.37-0.66,9.37-4.58,7.66L385.36,198.4z"/>
					<g>
						<path class="st13" d="M385.38,203.41c0.14,0,0.28-0.1,0.32-0.24c0.61-2.16,2.85-3.04,2.87-3.05c0.17-0.07,0.26-0.26,0.19-0.43
							c-0.06-0.17-0.26-0.26-0.43-0.19c-0.1,0.04-2.57,1-3.27,3.49c-0.05,0.18,0.05,0.36,0.23,0.41
							C385.33,203.4,385.36,203.41,385.38,203.41z"/>
					</g>
					<g>
						<g>
							<g>
								<path class="st13" d="M387.64,202.32c0.06,0,0.12-0.02,0.18-0.05c0.15-0.1,0.2-0.3,0.1-0.46c-0.02-0.03-0.41-0.63-1.24-1
									c-0.17-0.07-0.36,0-0.44,0.17c-0.07,0.17,0,0.36,0.17,0.44c0.64,0.29,0.95,0.75,0.96,0.76
									C387.43,202.27,387.54,202.32,387.64,202.32z"/>
							</g>
						</g>
					</g>
				</g>
				<path class="st8" d="M379.57,211.51v6.96c0,0-2.08,3.55-4.88,3.79c-2.81,0.24-5.3-3.05-5.3-3.05V212L379.57,211.51z"/>
				<path class="st11" d="M379.57,211.51v3.09c-1.88,2.09-5.23,2.61-10.18,1.88V212L379.57,211.51z"/>
				<path class="st8" d="M386.91,193.63c-0.13,2.71-0.38,6.09-0.9,8.79v0.01c0,0.01,0,0.02-0.01,0.03c0,0,0,0,0,0.01
					c-0.13,0.66-0.27,1.28-0.43,1.84c-0.09,0.33-0.19,0.67-0.31,1.02c-1.65,5.18-5.47,12.67-15.08,9.24
					c-4.05-1.44-6.15-5.62-7.23-10.16c-0.06-0.27-0.12-0.54-0.17-0.8c-0.04-0.17-0.07-0.34-0.1-0.5l-0.05-0.24
					c-0.01-0.04-0.01-0.07-0.02-0.09c0-0.01,0-0.02,0-0.02c-0.63-3.49-0.73-7.01-0.68-9.53c0.05-2.57,1.45-4.92,3.69-6.18
					c6.05-3.43,12.45-2.15,16.65-0.54C385.19,187.64,387.06,190.51,386.91,193.63z"/>
				<path class="st4" d="M386.01,202.42l-1.48-0.1c0,0-0.84,1.74-2.08,3.67c-1.24-2.73-7.24-0.75-7.24-0.75
					c-0.38,0.12-0.77,0.18-1.16,0.18c-0.38,0-0.76-0.06-1.13-0.17l-0.03-0.01c0,0-6.07-1.9-7.26,0.96c-0.73-1.12-1.33-2.38-1.6-3.72
					l-1.41,0.29c0,0,0,0.01,0,0.02c0,0.02,0.01,0.05,0.02,0.09l0.05,0.24c0.03,0.16,0.07,0.33,0.1,0.5c0.05,0.26,0.11,0.53,0.17,0.8
					c1.07,4.53,3.18,8.71,7.23,10.16c9.61,3.43,13.43-4.07,15.08-9.24c0.34-1.4,0.67-2.64,0.74-2.86c0,0,0,0,0-0.01
					C386.01,202.45,386.01,202.44,386.01,202.42C386.01,202.43,386.01,202.42,386.01,202.42L386.01,202.42z M379.67,209.53
					L379.67,209.53C379.66,209.53,379.66,209.53,379.67,209.53c-0.47,0.45-0.94,0.82-1.41,1.07c-2.66,1.44-2.95,1.22-4,1.27
					c-1.07,0.05-2.54-0.27-4.04-1.1c-0.47-0.26-1.16-0.77-1.93-1.46c0,0-1.08-3.69,5.78-2.77
					C380.94,205.35,379.78,208.8,379.67,209.53z"/>
				<path class="st4" d="M379.78,198.66c0,0.74-0.38,1.35-0.86,1.35c-0.47,0-0.86-0.6-0.86-1.35s0.38-1.35,0.86-1.35
					C379.4,197.32,379.78,197.92,379.78,198.66z"/>
				<path class="st4" d="M369.39,198.66c0,0.74-0.38,1.35-0.86,1.35c-0.47,0-0.86-0.6-0.86-1.35s0.38-1.35,0.86-1.35
					C369.01,197.32,369.39,197.92,369.39,198.66z"/>
				<path class="st4" d="M382.5,194.3c0,0-3.45-1.59-6.23-0.57l0.19,1.53c0,0,4.01-0.11,5.97,0.82
					C382.64,195.49,382.7,194.91,382.5,194.3z"/>
				<path class="st4" d="M365.63,194.29c0,0,3.49-1.59,6.28-0.54l-0.2,1.54c0,0-4.04-0.14-6.02,0.79
					C365.49,195.49,365.43,194.9,365.63,194.29z"/>
				<g>
					<path class="st11" d="M374.33,204.68c0.56,0,1.11-0.22,1.2-0.25c0.17-0.07,0.25-0.26,0.18-0.43c-0.07-0.17-0.26-0.25-0.43-0.18
						c-0.3,0.12-1.02,0.31-1.33,0.13c-0.06-0.04-0.14-0.11-0.16-0.31c-0.12-1.16,0.2-5.03,0.2-5.07c0.01-0.18-0.12-0.34-0.3-0.36
						c-0.18-0.02-0.34,0.12-0.36,0.3c-0.01,0.16-0.32,3.97-0.2,5.19c0.05,0.46,0.29,0.69,0.48,0.81
						C373.83,204.63,374.08,204.68,374.33,204.68z"/>
				</g>
				<path class="st0" d="M370.18,207.2c0.25,1.26,1.09,3.59,3.9,3.59c2.82,0,3.61-2.12,3.88-3.59H370.18z"/>
				<path class="st4" d="M386.91,193.63c-0.13,2.71-0.39,6.09-0.9,8.8l-1.48-0.1c0,0,0.36-2.28,0.52-3.77
					c0.17-1.49,0.45-4.27-0.82-4.62c-1.27-0.34-0.52-3.52-2.29-4.89c-1.76-1.38-5.71-1.76-8.31-0.16c-2.6,1.6-5.53-0.12-6.73,0.16
					c-1.2,0.27-2.83,1.93-2.39,3.47c0.44,1.54-0.88,2.48-1.2,4.08c-0.32,1.6,0.7,5.9,0.7,5.9l-1.41,0.28
					c-0.64-3.49-0.73-7.01-0.68-9.53c0.05-2.57,1.45-4.92,3.69-6.19c6.06-3.43,12.45-2.15,16.65-0.54
					C385.19,187.64,387.06,190.51,386.91,193.63z"/>
			</g>
			<g>
				<path class="st12" d="M380.06,265.34l-0.15,0.14c-0.13,0.12-0.26,0.24-0.39,0.35l-3.7,3.2c-5.37,4.65-10.75,9.3-16.14,13.93
					c3.31,6.83,6.59,13.65,9.88,20.47l1.83,3.79c0.08,0.17,0.15,0.35,0.25,0.58l0.13,0.31c0.38,0.92,0.15,1.98-0.59,2.65
					c-0.38,0.35-0.86,0.56-1.35,0.61c-0.45,0.05-0.92-0.04-1.34-0.26l-0.44-0.23c-0.26-0.13-0.47-0.24-0.68-0.36l-3.61-1.97
					c-6.46-3.53-12.92-7.05-19.37-10.59c-5.56,4.93-11.12,9.85-16.69,14.77l-2.6,2.3c-0.15,0.13-0.3,0.26-0.48,0.41l-0.26,0.22
					c-0.75,0.64-1.81,0.74-2.67,0.26c-0.04-0.02-0.09-0.05-0.13-0.08l-0.01,0l-2.76-1.62l1.75,0.17c-0.07-0.28-0.08-0.58-0.04-0.87
					l0.04-0.3c0.03-0.25,0.06-0.45,0.1-0.66l0.71-3.61c1.33-6.76,2.67-13.52,4.02-20.28c-6.65-3.82-13.28-7.64-19.91-11.47
					l-4.29-2.47c-0.4-0.23-0.92-0.58-1.37-1.24c-0.47-0.68-0.55-1.56-0.2-2.32c0.34-0.75,1.05-1.28,1.88-1.37l0.51-0.06
					c0.38-0.04,0.76-0.09,1.14-0.14l6.24-0.8c6.81-0.87,13.62-1.74,20.43-2.6c1.35-6.91,2.72-13.8,4.08-20.69l1.14-5.72
					c0.13-0.6,0.48-1.11,0.96-1.45l-0.24-1.74l2.6,1.54v0c0.43,0.2,0.8,0.54,1.05,0.98l0.14,0.25c0.12,0.2,0.21,0.37,0.29,0.54
					l2,3.95c3.44,6.81,6.88,13.63,10.3,20.45c6.69-0.84,13.36-1.66,20.03-2.47l4.74-0.58l-0.2-1.5l2.95,1.73l0,0
					c0.53,0.29,0.94,0.79,1.12,1.39C381,263.78,380.74,264.73,380.06,265.34z"/>
				<g>
					<path class="st6" d="M366.91,309.68c-0.45,0.05-0.92-0.04-1.35-0.26l-0.44-0.23c-0.25-0.13-0.47-0.24-0.68-0.36l-3.61-1.97
						c-6.46-3.53-12.92-7.05-19.37-10.59c-5.56,4.93-11.12,9.85-16.69,14.77l-2.6,2.3c-0.15,0.13-0.3,0.26-0.48,0.41l-0.26,0.22
						c-0.75,0.64-1.82,0.74-2.67,0.26c-0.86-0.48-1.34-1.44-1.19-2.41l0.04-0.3c0.03-0.25,0.06-0.45,0.1-0.66l0.71-3.61
						c1.33-6.76,2.67-13.52,4.02-20.28c-6.66-3.82-13.28-7.64-19.91-11.47l-4.29-2.47c-0.4-0.23-0.92-0.58-1.37-1.24
						c-0.47-0.68-0.55-1.56-0.2-2.32c0.34-0.75,1.06-1.28,1.88-1.37l0.51-0.06c0.38-0.04,0.76-0.09,1.14-0.14l6.24-0.8
						c6.81-0.87,13.62-1.74,20.43-2.6c1.35-6.9,2.71-13.8,4.08-20.69l1.14-5.72c0.2-0.96,0.98-1.7,1.96-1.85
						c0.98-0.15,1.94,0.32,2.42,1.18l0.14,0.25c0.11,0.2,0.21,0.37,0.29,0.54l2,3.95c3.44,6.81,6.88,13.63,10.31,20.45
						c6.68-0.84,13.36-1.65,20.03-2.47l4.95-0.61c0.4-0.05,1-0.12,1.76,0c0.9,0.14,1.64,0.79,1.9,1.66c0.26,0.87,0,1.82-0.68,2.43
						l-0.15,0.14c-0.13,0.12-0.26,0.24-0.39,0.35l-3.7,3.2c-5.38,4.65-10.75,9.3-16.14,13.93c3.31,6.83,6.59,13.65,9.88,20.47
						l1.82,3.79c0.08,0.17,0.16,0.35,0.25,0.58l0.13,0.31c0.38,0.92,0.15,1.98-0.59,2.65C367.88,309.42,367.4,309.63,366.91,309.68z
						"/>
				</g>
			</g>
			<path class="st8" d="M305.2,276.27c0,0,2.95-2.78,4.85-2.82c1.9-0.04-1.48,4.33-1.48,4.33s4.12-5.25,5.56-4.51
				c1.44,0.74-2.42,5.96-2.42,5.96s3.33-3.13,4.5-2.67c1.16,0.46-1.5,4.39-1.5,4.39s2.89-2.22,3.81-1.96
				c0.92,0.25-0.93,3.83-2.49,5.25c-1.55,1.42-2.98-1.02-2.98-1.02s-2.38-0.75-2.62-1.9c0,0-2.31-0.41-2.98-1.58
				C307.46,279.73,303.97,278.63,305.2,276.27z"/>
			<g>
				<g>
					<path class="st8" d="M367.28,295.28l-1.5,0.53c-1.34,0.47-2.63,0.04-3.66-0.94c-0.45-0.43-1.15-1.28-1.52-1.52
						c-1.03-0.69-3.49-1.58-4.22-1.38c-0.73,0.2-0.13,1.49,0.58,1.89c0.71,0.41,1.77,0.87,2.49,1.54c0.72,0.67-2.62,3.73-4.08,4.68
						c-1.46,0.95-4.56,1.08-4.37,2.5c0.19,1.42,2.36,0.87,2.36,0.87s-0.2,1.41,1.9,1.78c0,0,0.1,1.28,1.45,1.5
						c0,0,0.39,1.52,1.84,1.45s5.95-0.33,12.25-8.02L367.28,295.28z"/>
				</g>
				<path class="st14" d="M366.89,294.45c0,0,21.97-14.9,29.31-23.14c0,0-0.22-10.62-0.74-19.14c-0.34-5.52-0.12-11.07,0.73-16.54
					c0.47-3.07,1.12-6.02,1.99-7.75c0,0,5.77,2.28,7.85,22.39c1.13,10.94,1.2,19.55,1.13,24.03c-0.04,2.26-0.92,4.42-2.47,6.06
					c-4.83,5.1-16.79,16.14-33.22,20.38C371.47,300.74,367.54,297.07,366.89,294.45z"/>
			</g>
		</g>
	</g>
	<g>
		<g>
			<g>
				<g>
					<path class="st1" d="M452.12,402.93h-8.34c-0.28,0-0.55-0.12-0.74-0.33c-0.19-0.21-0.27-0.49-0.24-0.77l0.75-6.04h-3.18
						l-0.78,6.28c-0.06,0.49-0.48,0.86-0.98,0.86h-8.34c-0.28,0-0.55-0.12-0.74-0.33c-0.19-0.21-0.27-0.49-0.24-0.77l0.75-6.04
						h-5.19c-0.54,0-0.98-0.44-0.98-0.98v-7.82c0-0.54,0.44-0.98,0.98-0.98h6.42l0.55-4.6h-5.2c-0.54,0-0.98-0.44-0.98-0.98v-7.82
						c0-0.54,0.44-0.98,0.98-0.98h6.43l0.78-6.28c0.06-0.49,0.48-0.86,0.98-0.86h8.34c0.28,0,0.55,0.12,0.74,0.33
						c0.19,0.21,0.27,0.49,0.24,0.77l-0.75,6.04h3.18l0.78-6.28c0.06-0.49,0.48-0.86,0.98-0.86h8.34c0.28,0,0.55,0.12,0.74,0.33
						c0.19,0.21,0.27,0.49,0.24,0.77l-0.75,6.04h5.19c0.54,0,0.98,0.44,0.98,0.98v7.82c0,0.54-0.44,0.98-0.98,0.98h-6.42l-0.55,4.6
						h5.2c0.54,0,0.98,0.44,0.98,0.98v7.82c0,0.54-0.44,0.98-0.98,0.98h-6.43l-0.78,6.28C453.03,402.56,452.62,402.93,452.12,402.93
						z M444.89,400.97h6.36l0.78-6.28c0.06-0.49,0.48-0.86,0.98-0.86h6.31v-5.85H454c-0.28,0-0.55-0.12-0.73-0.33
						c-0.19-0.21-0.27-0.49-0.24-0.77l0.78-6.57c0.06-0.49,0.48-0.87,0.98-0.87h6.31v-5.85h-5.32c-0.28,0-0.55-0.12-0.74-0.33
						c-0.19-0.21-0.27-0.49-0.24-0.77l0.75-6.04h-6.36l-0.78,6.28c-0.06,0.49-0.48,0.86-0.98,0.86h-5.16
						c-0.28,0-0.55-0.12-0.74-0.33c-0.19-0.21-0.27-0.49-0.24-0.77l0.75-6.04h-6.36l-0.78,6.28c-0.06,0.49-0.48,0.86-0.98,0.86
						h-6.31v5.85h5.32c0.28,0,0.55,0.12,0.73,0.33c0.19,0.21,0.27,0.49,0.24,0.77l-0.78,6.57c-0.06,0.49-0.48,0.87-0.98,0.87h-6.31
						v5.85h5.32c0.28,0,0.55,0.12,0.74,0.33c0.19,0.21,0.27,0.49,0.24,0.77l-0.75,6.04h6.36l0.78-6.28
						c0.06-0.49,0.48-0.86,0.98-0.86h5.16c0.28,0,0.55,0.12,0.74,0.33c0.19,0.21,0.27,0.49,0.24,0.77L444.89,400.97z M445.66,387.98
						h-5.16c-0.28,0-0.55-0.12-0.73-0.33c-0.19-0.21-0.27-0.49-0.24-0.77l0.78-6.57c0.06-0.49,0.48-0.87,0.98-0.87h5.16
						c0.28,0,0.55,0.12,0.73,0.33c0.19,0.21,0.27,0.49,0.24,0.77l-0.78,6.57C446.58,387.6,446.16,387.98,445.66,387.98z
						 M441.61,386.01h3.18l0.55-4.6h-3.18L441.61,386.01z"/>
				</g>
			</g>
		</g>
		<g>
			<path class="st1" d="M185.63,107.44c-0.25,0-0.49-0.09-0.68-0.28l-13.28-13.28c-2.06-2.06-3.2-4.81-3.2-7.75
				c0-2.93,1.13-5.68,3.19-7.74c1.82-1.82,4.12-2.69,6.5-2.47c2.68,0.26,5.3,1.9,7.47,4.67c2.17-2.77,4.78-4.41,7.47-4.67
				c2.37-0.23,4.68,0.65,6.5,2.47c2.06,2.06,3.19,4.81,3.19,7.74c0,2.93-1.14,5.69-3.2,7.75l-13.28,13.28
				C186.12,107.35,185.88,107.44,185.63,107.44z M177.41,77.81c-1.6,0-3.11,0.66-4.39,1.94c-1.7,1.7-2.63,3.97-2.63,6.39
				c0,2.42,0.94,4.69,2.64,6.39l12.6,12.6l12.6-12.6c1.7-1.7,2.64-3.97,2.64-6.39c0-2.42-0.94-4.69-2.63-6.39
				c-1.43-1.43-3.14-2.09-4.96-1.91c-2.44,0.24-4.87,1.99-6.86,4.93c-0.18,0.26-0.48,0.42-0.79,0.42s-0.62-0.16-0.79-0.42
				c-1.98-2.94-4.42-4.69-6.86-4.93C177.79,77.82,177.6,77.81,177.41,77.81z"/>
		</g>
		<g>
			<g>
				<g>
					<g>
						<path class="st5" d="M35.81,154.85h-0.94c-0.17,0-0.32-0.09-0.41-0.24c-0.08-0.15-0.08-0.32,0-0.47l0.47-0.81
							c0.13-0.22,0.42-0.3,0.64-0.17c0.23,0.13,0.3,0.42,0.17,0.64l-0.06,0.11h0.13c0.26,0,0.47,0.21,0.47,0.47
							C36.28,154.64,36.07,154.85,35.81,154.85z"/>
					</g>
					<g>
						<path class="st5" d="M36.18,152.59c-0.08,0-0.16-0.02-0.23-0.06c-0.22-0.13-0.3-0.42-0.17-0.64l0.84-1.45
							c0.13-0.22,0.42-0.3,0.64-0.17c0.22,0.13,0.3,0.42,0.17,0.64l-0.84,1.45C36.5,152.51,36.34,152.59,36.18,152.59z M37.85,149.7
							c-0.08,0-0.16-0.02-0.23-0.06c-0.23-0.13-0.3-0.42-0.17-0.64l0.84-1.45c0.13-0.22,0.42-0.3,0.64-0.17
							c0.22,0.13,0.3,0.42,0.17,0.64l-0.84,1.45C38.17,149.61,38.01,149.7,37.85,149.7z M39.52,146.8c-0.08,0-0.16-0.02-0.23-0.06
							c-0.22-0.13-0.3-0.42-0.17-0.64l0.84-1.45c0.13-0.22,0.42-0.3,0.64-0.17c0.23,0.13,0.3,0.42,0.17,0.64l-0.84,1.45
							C39.84,146.72,39.68,146.8,39.52,146.8z"/>
					</g>
					<g>
						<path class="st5" d="M42.13,143.91c-0.16,0-0.32-0.08-0.41-0.24l-0.06-0.11l-0.06,0.11c-0.13,0.23-0.42,0.3-0.64,0.17
							c-0.22-0.13-0.3-0.42-0.17-0.64l0.47-0.81c0.08-0.15,0.24-0.24,0.41-0.24c0.17,0,0.32,0.09,0.41,0.24l0.47,0.81
							c0.13,0.23,0.05,0.51-0.17,0.64C42.29,143.89,42.21,143.91,42.13,143.91z"/>
					</g>
					<g>
						<path class="st5" d="M47.15,152.59c-0.16,0-0.32-0.08-0.41-0.24l-0.84-1.45c-0.13-0.22-0.05-0.51,0.17-0.64
							c0.22-0.13,0.51-0.05,0.64,0.17l0.84,1.45c0.13,0.22,0.05,0.51-0.17,0.64C47.31,152.57,47.23,152.59,47.15,152.59z
							 M45.48,149.7c-0.16,0-0.32-0.08-0.41-0.24l-0.84-1.45c-0.13-0.23-0.05-0.51,0.17-0.64c0.23-0.13,0.51-0.05,0.64,0.17
							l0.84,1.45c0.13,0.22,0.05,0.51-0.17,0.64C45.64,149.68,45.56,149.7,45.48,149.7z M43.8,146.8c-0.16,0-0.32-0.08-0.41-0.24
							l-0.84-1.45c-0.13-0.23-0.05-0.51,0.17-0.64c0.22-0.13,0.51-0.05,0.64,0.17l0.84,1.45c0.13,0.23,0.05,0.51-0.17,0.64
							C43.97,146.78,43.88,146.8,43.8,146.8z"/>
					</g>
					<g>
						<path class="st5" d="M48.45,154.85h-0.94c-0.26,0-0.47-0.21-0.47-0.47c0-0.26,0.21-0.47,0.47-0.47h0.13l-0.06-0.11
							c-0.13-0.23-0.05-0.51,0.17-0.64c0.23-0.13,0.51-0.05,0.64,0.17l0.47,0.81c0.08,0.15,0.08,0.32,0,0.47
							C48.78,154.76,48.62,154.85,48.45,154.85z"/>
					</g>
					<g>
						<path class="st5" d="M45.84,154.85h-1.67c-0.26,0-0.47-0.21-0.47-0.47c0-0.26,0.21-0.47,0.47-0.47h1.67
							c0.26,0,0.47,0.21,0.47,0.47C46.31,154.64,46.1,154.85,45.84,154.85z M42.5,154.85h-1.67c-0.26,0-0.47-0.21-0.47-0.47
							c0-0.26,0.21-0.47,0.47-0.47h1.67c0.26,0,0.47,0.21,0.47,0.47C42.97,154.64,42.76,154.85,42.5,154.85z M39.16,154.85h-1.67
							c-0.26,0-0.47-0.21-0.47-0.47c0-0.26,0.21-0.47,0.47-0.47h1.67c0.26,0,0.47,0.21,0.47,0.47
							C39.63,154.64,39.41,154.85,39.16,154.85z"/>
					</g>
				</g>
			</g>
			<g>
				<path class="st6" d="M56.7,176.47c-0.02,0-0.04,0-0.07,0c-0.67-0.1-1.32-0.29-1.93-0.57c-0.24-0.11-0.34-0.39-0.23-0.62
					c0.11-0.24,0.39-0.34,0.62-0.23c0.53,0.24,1.09,0.41,1.67,0.49c0.26,0.04,0.44,0.28,0.4,0.53
					C57.13,176.3,56.93,176.47,56.7,176.47z M58.57,176.47c-0.23,0-0.43-0.17-0.47-0.4c-0.04-0.26,0.14-0.5,0.4-0.53
					c0.58-0.08,1.14-0.25,1.67-0.49c0.24-0.11,0.52,0,0.62,0.23c0.11,0.24,0,0.52-0.23,0.62c-0.61,0.28-1.26,0.47-1.93,0.57
					C58.61,176.46,58.59,176.47,58.57,176.47z M61.95,174.92c-0.13,0-0.26-0.06-0.36-0.16c-0.17-0.2-0.15-0.49,0.05-0.66
					c0.44-0.38,0.83-0.83,1.14-1.32c0.14-0.22,0.43-0.28,0.65-0.14c0.22,0.14,0.28,0.43,0.14,0.65c-0.36,0.57-0.81,1.08-1.32,1.52
					C62.16,174.89,62.06,174.92,61.95,174.92z M53.32,174.92c-0.11,0-0.22-0.04-0.31-0.11c-0.51-0.44-0.95-0.95-1.32-1.52
					c-0.14-0.22-0.08-0.51,0.14-0.65c0.22-0.14,0.51-0.08,0.65,0.14c0.32,0.49,0.7,0.93,1.14,1.32c0.2,0.17,0.22,0.47,0.05,0.66
					C53.58,174.87,53.45,174.92,53.32,174.92z M63.95,171.8c-0.04,0-0.09-0.01-0.13-0.02c-0.25-0.07-0.39-0.33-0.32-0.58
					c0.16-0.56,0.25-1.14,0.25-1.72c0-0.26,0.21-0.47,0.47-0.47c0.26,0,0.47,0.21,0.47,0.47c0,0.68-0.1,1.35-0.28,1.99
					C64.35,171.67,64.16,171.8,63.95,171.8z M51.31,171.8c-0.2,0-0.39-0.13-0.45-0.34c-0.19-0.64-0.28-1.31-0.28-1.99
					c0-0.26,0.21-0.47,0.47-0.47c0.26,0,0.47,0.21,0.47,0.47c0,0.59,0.08,1.17,0.25,1.72c0.07,0.25-0.07,0.51-0.32,0.58
					C51.4,171.79,51.35,171.8,51.31,171.8z M63.95,168.09c-0.2,0-0.39-0.13-0.45-0.34c-0.16-0.56-0.41-1.09-0.72-1.58
					c-0.14-0.22-0.08-0.51,0.14-0.65c0.22-0.14,0.51-0.08,0.65,0.14c0.37,0.57,0.65,1.18,0.84,1.83c0.07,0.25-0.07,0.51-0.32,0.58
					C64.04,168.08,64,168.09,63.95,168.09z M51.31,168.09c-0.04,0-0.09-0.01-0.13-0.02c-0.25-0.07-0.39-0.33-0.32-0.58
					c0.19-0.65,0.47-1.26,0.84-1.83c0.14-0.22,0.43-0.28,0.65-0.14c0.22,0.14,0.28,0.43,0.14,0.65c-0.32,0.49-0.56,1.02-0.72,1.58
					C51.7,167.96,51.52,168.09,51.31,168.09z M61.95,164.97c-0.11,0-0.22-0.04-0.31-0.12c-0.44-0.38-0.93-0.7-1.46-0.94
					c-0.24-0.11-0.34-0.39-0.23-0.62c0.11-0.24,0.39-0.34,0.62-0.23c0.61,0.28,1.18,0.65,1.69,1.09c0.2,0.17,0.22,0.47,0.05,0.66
					C62.21,164.91,62.08,164.97,61.95,164.97z M53.32,164.97c-0.13,0-0.26-0.05-0.36-0.16c-0.17-0.2-0.15-0.49,0.05-0.66
					c0.51-0.44,1.08-0.81,1.69-1.09c0.24-0.11,0.52,0,0.62,0.23c0.11,0.24,0,0.52-0.23,0.62c-0.53,0.24-1.02,0.56-1.46,0.94
					C53.54,164.93,53.43,164.97,53.32,164.97z M58.57,163.43c-0.02,0-0.04,0-0.07,0c-0.57-0.08-1.17-0.08-1.74,0
					c-0.26,0.04-0.5-0.14-0.53-0.4c-0.04-0.26,0.14-0.5,0.4-0.53c0.66-0.09,1.35-0.09,2.01,0c0.26,0.04,0.44,0.27,0.4,0.53
					C59,163.26,58.8,163.43,58.57,163.43z"/>
			</g>
			<g>
				<path class="st7" d="M56.7,138.24c-0.02,0-0.04,0-0.07,0c-0.67-0.1-1.32-0.29-1.93-0.57c-0.24-0.11-0.34-0.39-0.23-0.62
					c0.11-0.24,0.39-0.34,0.62-0.23c0.53,0.24,1.09,0.41,1.67,0.49c0.26,0.04,0.44,0.27,0.4,0.53
					C57.13,138.07,56.93,138.24,56.7,138.24z M58.57,138.24c-0.23,0-0.43-0.17-0.47-0.4c-0.04-0.26,0.14-0.5,0.4-0.53
					c0.58-0.08,1.14-0.25,1.67-0.49c0.24-0.11,0.52,0,0.62,0.23c0.11,0.24,0,0.52-0.23,0.62c-0.61,0.28-1.26,0.47-1.93,0.57
					C58.61,138.24,58.59,138.24,58.57,138.24z M61.95,136.7c-0.13,0-0.26-0.05-0.36-0.16c-0.17-0.2-0.15-0.49,0.05-0.66
					c0.44-0.38,0.83-0.83,1.14-1.32c0.14-0.22,0.43-0.28,0.65-0.14c0.22,0.14,0.28,0.43,0.14,0.65c-0.36,0.57-0.81,1.08-1.32,1.52
					C62.16,136.66,62.05,136.7,61.95,136.7z M53.32,136.7c-0.11,0-0.22-0.04-0.31-0.12c-0.51-0.44-0.95-0.95-1.32-1.52
					c-0.14-0.22-0.08-0.51,0.14-0.65c0.22-0.14,0.51-0.08,0.65,0.14c0.32,0.49,0.7,0.93,1.14,1.32c0.2,0.17,0.22,0.47,0.05,0.66
					C53.58,136.65,53.45,136.7,53.32,136.7z M63.95,133.58c-0.04,0-0.09-0.01-0.13-0.02c-0.25-0.07-0.39-0.33-0.32-0.58
					c0.16-0.56,0.25-1.14,0.25-1.72c0-0.26,0.21-0.47,0.47-0.47c0.26,0,0.47,0.21,0.47,0.47c0,0.68-0.1,1.35-0.28,1.99
					C64.34,133.45,64.16,133.58,63.95,133.58z M51.31,133.58c-0.2,0-0.39-0.13-0.45-0.34c-0.19-0.64-0.28-1.31-0.28-1.99
					c0-0.26,0.21-0.47,0.47-0.47c0.26,0,0.47,0.21,0.47,0.47c0,0.59,0.08,1.17,0.25,1.72c0.07,0.25-0.07,0.51-0.32,0.58
					C51.4,133.57,51.35,133.58,51.31,133.58z M63.95,129.87c-0.2,0-0.39-0.13-0.45-0.34c-0.16-0.56-0.41-1.09-0.72-1.58
					c-0.14-0.22-0.08-0.51,0.14-0.65c0.22-0.14,0.51-0.08,0.65,0.14c0.37,0.57,0.65,1.18,0.84,1.83c0.07,0.25-0.07,0.51-0.32,0.58
					C64.04,129.86,64,129.87,63.95,129.87z M51.31,129.87c-0.04,0-0.09-0.01-0.13-0.02c-0.25-0.07-0.39-0.33-0.32-0.58
					c0.19-0.65,0.47-1.26,0.84-1.83c0.14-0.22,0.43-0.28,0.65-0.14c0.22,0.14,0.28,0.43,0.14,0.65c-0.32,0.49-0.56,1.02-0.72,1.58
					C51.7,129.73,51.51,129.87,51.31,129.87z M61.95,126.75c-0.11,0-0.22-0.04-0.31-0.12c-0.44-0.38-0.93-0.7-1.46-0.94
					c-0.24-0.11-0.34-0.39-0.23-0.62c0.11-0.24,0.39-0.34,0.62-0.23c0.61,0.28,1.18,0.65,1.69,1.09c0.2,0.17,0.22,0.47,0.05,0.66
					C62.21,126.69,62.08,126.75,61.95,126.75z M53.32,126.75c-0.13,0-0.26-0.05-0.36-0.16c-0.17-0.2-0.15-0.49,0.05-0.66
					c0.51-0.44,1.08-0.81,1.69-1.09c0.24-0.11,0.52,0,0.62,0.23c0.11,0.24,0,0.52-0.23,0.62c-0.53,0.24-1.02,0.56-1.46,0.94
					C53.54,126.71,53.43,126.75,53.32,126.75z M58.57,125.2c-0.02,0-0.04,0-0.07,0c-0.57-0.08-1.17-0.08-1.74,0
					c-0.26,0.04-0.5-0.14-0.53-0.4c-0.04-0.26,0.14-0.5,0.4-0.53c0.66-0.09,1.35-0.09,2.01,0c0.26,0.04,0.44,0.27,0.4,0.53
					C59,125.03,58.8,125.2,58.57,125.2z"/>
			</g>
		</g>
		<g>
			<g>
				<g>
					<g>
						<path class="st5" d="M362.05,105.19h0.94c0.17,0,0.32-0.09,0.41-0.24c0.08-0.15,0.08-0.32,0-0.47l-0.47-0.81
							c-0.13-0.22-0.42-0.3-0.64-0.17c-0.23,0.13-0.3,0.42-0.17,0.64l0.06,0.11h-0.13c-0.26,0-0.47,0.21-0.47,0.47
							C361.58,104.98,361.79,105.19,362.05,105.19z"/>
					</g>
					<g>
						<path class="st5" d="M361.28,102.69l-0.84-1.45c-0.13-0.22-0.05-0.51,0.17-0.64c0.22-0.13,0.51-0.05,0.64,0.17l0.84,1.45
							c0.13,0.23,0.05,0.51-0.17,0.64c-0.07,0.04-0.15,0.06-0.23,0.06C361.52,102.93,361.36,102.85,361.28,102.69z M359.61,99.8
							l-0.84-1.45c-0.13-0.23-0.05-0.51,0.17-0.64c0.23-0.13,0.51-0.05,0.64,0.17l0.84,1.45c0.13,0.23,0.05,0.51-0.17,0.64
							c-0.07,0.04-0.15,0.06-0.23,0.06C359.85,100.04,359.69,99.95,359.61,99.8z M357.93,96.91l-0.84-1.45
							c-0.13-0.23-0.05-0.51,0.17-0.64c0.23-0.13,0.51-0.05,0.64,0.17l0.84,1.45c0.13,0.23,0.05,0.51-0.17,0.64
							c-0.07,0.04-0.15,0.06-0.23,0.06C358.18,97.14,358.02,97.06,357.93,96.91z"/>
					</g>
					<g>
						<path class="st5" d="M355.73,94.25c0.16,0,0.32-0.08,0.41-0.24l0.06-0.11l0.06,0.11c0.13,0.23,0.42,0.3,0.64,0.17
							c0.23-0.13,0.3-0.42,0.17-0.64l-0.47-0.81c-0.08-0.15-0.24-0.24-0.41-0.24c-0.17,0-0.32,0.09-0.41,0.24l-0.47,0.81
							c-0.13,0.22-0.05,0.51,0.17,0.64C355.57,94.23,355.65,94.25,355.73,94.25z"/>
					</g>
					<g>
						<path class="st5" d="M350.48,102.87c-0.23-0.13-0.3-0.42-0.17-0.64l0.84-1.45c0.13-0.22,0.42-0.3,0.64-0.17
							c0.23,0.13,0.3,0.42,0.17,0.64l-0.84,1.45c-0.09,0.15-0.25,0.24-0.41,0.24C350.64,102.93,350.55,102.91,350.48,102.87z
							 M352.15,99.97c-0.23-0.13-0.3-0.42-0.17-0.64l0.84-1.45c0.13-0.22,0.42-0.3,0.64-0.17c0.23,0.13,0.3,0.42,0.17,0.64
							l-0.84,1.45c-0.09,0.15-0.25,0.24-0.41,0.24C352.31,100.04,352.23,100.01,352.15,99.97z M353.82,97.08
							c-0.23-0.13-0.3-0.42-0.17-0.64l0.84-1.45c0.13-0.22,0.42-0.3,0.64-0.17c0.23,0.13,0.3,0.42,0.17,0.64l-0.84,1.45
							c-0.09,0.15-0.25,0.24-0.41,0.24C353.98,97.14,353.9,97.12,353.82,97.08z"/>
					</g>
					<g>
						<path class="st5" d="M349.41,105.19h0.94c0.26,0,0.47-0.21,0.47-0.47c0-0.26-0.21-0.47-0.47-0.47h-0.13l0.06-0.11
							c0.13-0.22,0.05-0.51-0.17-0.64c-0.23-0.13-0.51-0.05-0.64,0.17l-0.47,0.81c-0.08,0.15-0.08,0.32,0,0.47
							C349.09,105.1,349.24,105.19,349.41,105.19z"/>
					</g>
					<g>
						<path class="st5" d="M351.55,104.72c0-0.26,0.21-0.47,0.47-0.47h1.67c0.26,0,0.47,0.21,0.47,0.47c0,0.26-0.21,0.47-0.47,0.47
							h-1.67C351.76,105.19,351.55,104.98,351.55,104.72z M354.89,104.72c0-0.26,0.21-0.47,0.47-0.47h1.67
							c0.26,0,0.47,0.21,0.47,0.47c0,0.26-0.21,0.47-0.47,0.47h-1.67C355.1,105.19,354.89,104.98,354.89,104.72z M358.24,104.72
							c0-0.26,0.21-0.47,0.47-0.47h1.67c0.26,0,0.47,0.21,0.47,0.47c0,0.26-0.21,0.47-0.47,0.47h-1.67
							C358.45,105.19,358.24,104.98,358.24,104.72z"/>
					</g>
				</g>
			</g>
			<g>
				<g>
					<path class="st7" d="M334.63,100.91h0.94c0.17,0,0.32-0.09,0.41-0.24c0.08-0.15,0.08-0.32,0-0.47l-0.47-0.81
						c-0.13-0.22-0.42-0.3-0.64-0.17c-0.23,0.13-0.3,0.42-0.17,0.64l0.06,0.11h-0.13c-0.26,0-0.47,0.21-0.47,0.47
						C334.16,100.7,334.37,100.91,334.63,100.91z"/>
				</g>
				<g>
					<path class="st7" d="M333.86,98.42l-0.84-1.45c-0.13-0.22-0.05-0.51,0.17-0.64c0.22-0.13,0.51-0.05,0.64,0.17l0.84,1.45
						c0.13,0.23,0.05,0.51-0.17,0.64c-0.07,0.04-0.16,0.06-0.23,0.06C334.11,98.65,333.95,98.57,333.86,98.42z M332.19,95.52
						l-0.84-1.45c-0.13-0.22-0.05-0.51,0.17-0.64c0.23-0.13,0.51-0.05,0.64,0.17l0.84,1.45c0.13,0.23,0.05,0.51-0.17,0.64
						c-0.07,0.04-0.15,0.06-0.23,0.06C332.43,95.76,332.28,95.67,332.19,95.52z M330.52,92.63l-0.84-1.45
						c-0.13-0.23-0.05-0.51,0.17-0.64c0.23-0.13,0.51-0.05,0.64,0.17l0.84,1.45c0.13,0.22,0.05,0.51-0.17,0.64
						c-0.07,0.04-0.16,0.06-0.23,0.06C330.76,92.86,330.61,92.78,330.52,92.63z"/>
				</g>
				<g>
					<path class="st7" d="M328.31,89.97c0.16,0,0.32-0.08,0.41-0.24l0.06-0.11l0.06,0.11c0.13,0.23,0.42,0.3,0.64,0.17
						c0.23-0.13,0.3-0.42,0.17-0.64l-0.47-0.81c-0.08-0.15-0.24-0.24-0.41-0.24c-0.17,0-0.32,0.09-0.41,0.24l-0.47,0.81
						c-0.13,0.23-0.05,0.51,0.17,0.64C328.15,89.95,328.23,89.97,328.31,89.97z"/>
				</g>
				<g>
					<path class="st7" d="M323.06,98.59c-0.23-0.13-0.3-0.42-0.17-0.64l0.84-1.45c0.13-0.22,0.42-0.3,0.64-0.17
						c0.23,0.13,0.3,0.42,0.17,0.64l-0.84,1.45c-0.09,0.15-0.25,0.24-0.41,0.24C323.22,98.65,323.14,98.63,323.06,98.59z
						 M324.74,95.69c-0.23-0.13-0.3-0.42-0.17-0.64l0.84-1.45c0.13-0.22,0.42-0.3,0.64-0.17c0.23,0.13,0.3,0.42,0.17,0.64
						l-0.84,1.45c-0.09,0.15-0.25,0.24-0.41,0.24C324.89,95.76,324.81,95.74,324.74,95.69z M326.41,92.8
						c-0.23-0.13-0.3-0.42-0.17-0.64l0.84-1.45c0.13-0.22,0.42-0.3,0.64-0.17c0.23,0.13,0.3,0.42,0.17,0.64l-0.84,1.45
						c-0.09,0.15-0.25,0.24-0.41,0.24C326.56,92.86,326.48,92.84,326.41,92.8z"/>
				</g>
				<g>
					<path class="st7" d="M321.99,100.91h0.94c0.26,0,0.47-0.21,0.47-0.47c0-0.26-0.21-0.47-0.47-0.47h-0.13l0.06-0.11
						c0.13-0.22,0.05-0.51-0.17-0.64c-0.23-0.13-0.51-0.05-0.64,0.17l-0.47,0.81c-0.08,0.15-0.08,0.32,0,0.47
						C321.67,100.82,321.83,100.91,321.99,100.91z"/>
				</g>
				<g>
					<path class="st7" d="M324.14,100.44c0-0.26,0.21-0.47,0.47-0.47h1.67c0.26,0,0.47,0.21,0.47,0.47c0,0.26-0.21,0.47-0.47,0.47
						h-1.67C324.35,100.91,324.14,100.7,324.14,100.44z M327.48,100.44c0-0.26,0.21-0.47,0.47-0.47h1.67c0.26,0,0.47,0.21,0.47,0.47
						c0,0.26-0.21,0.47-0.47,0.47h-1.67C327.69,100.91,327.48,100.7,327.48,100.44z M330.82,100.44c0-0.26,0.21-0.47,0.47-0.47h1.67
						c0.26,0,0.47,0.21,0.47,0.47c0,0.26-0.21,0.47-0.47,0.47h-1.67C331.03,100.91,330.82,100.7,330.82,100.44z"/>
				</g>
			</g>
			<g>
				<g>
					<path class="st6" d="M347.93,85.12c-0.04-0.26,0.14-0.5,0.4-0.53c0.58-0.08,1.14-0.25,1.67-0.49c0.24-0.11,0.52,0,0.62,0.23
						c0.11,0.24,0,0.52-0.23,0.62c-0.61,0.28-1.26,0.47-1.93,0.57c-0.02,0-0.04,0-0.07,0C348.16,85.52,347.96,85.35,347.93,85.12z
						 M346.45,85.52c-0.67-0.1-1.32-0.29-1.93-0.57c-0.24-0.11-0.34-0.39-0.23-0.62c0.11-0.24,0.39-0.34,0.62-0.23
						c0.53,0.24,1.09,0.41,1.67,0.49c0.26,0.04,0.44,0.27,0.4,0.53c-0.03,0.23-0.23,0.4-0.47,0.4
						C346.5,85.52,346.47,85.52,346.45,85.52z M342.83,83.86c-0.51-0.44-0.95-0.95-1.32-1.52c-0.14-0.22-0.08-0.51,0.14-0.65
						c0.22-0.14,0.51-0.08,0.65,0.14c0.32,0.49,0.7,0.93,1.14,1.32c0.2,0.17,0.22,0.47,0.05,0.66c-0.09,0.11-0.22,0.16-0.36,0.16
						C343.03,83.98,342.92,83.94,342.83,83.86z M351.41,83.82c-0.17-0.2-0.15-0.49,0.05-0.66c0.44-0.38,0.83-0.83,1.14-1.32
						c0.14-0.22,0.43-0.28,0.65-0.14c0.22,0.14,0.28,0.43,0.14,0.65c-0.36,0.57-0.81,1.08-1.32,1.52c-0.09,0.08-0.2,0.11-0.31,0.11
						C351.64,83.98,351.51,83.92,351.41,83.82z M340.68,80.52c-0.19-0.64-0.28-1.31-0.28-1.99c0-0.26,0.21-0.47,0.47-0.47
						s0.47,0.21,0.47,0.47c0,0.59,0.08,1.17,0.25,1.72c0.07,0.25-0.07,0.51-0.32,0.58c-0.04,0.01-0.09,0.02-0.13,0.02
						C340.93,80.86,340.74,80.72,340.68,80.52z M353.64,80.84c-0.25-0.07-0.39-0.33-0.32-0.58c0.16-0.56,0.25-1.14,0.25-1.72
						c0-0.26,0.21-0.47,0.47-0.47s0.47,0.21,0.47,0.47c0,0.68-0.1,1.34-0.28,1.99c-0.06,0.21-0.25,0.34-0.45,0.34
						C353.73,80.86,353.69,80.85,353.64,80.84z M341,77.13c-0.25-0.07-0.39-0.33-0.32-0.58c0.19-0.65,0.47-1.26,0.84-1.83
						c0.14-0.22,0.43-0.28,0.65-0.14c0.22,0.14,0.28,0.43,0.14,0.65c-0.32,0.49-0.56,1.02-0.72,1.58c-0.06,0.21-0.25,0.34-0.45,0.34
						C341.09,77.15,341.05,77.14,341,77.13z M353.33,76.81c-0.16-0.56-0.41-1.09-0.72-1.58c-0.14-0.22-0.08-0.51,0.14-0.65
						c0.22-0.14,0.51-0.08,0.65,0.14c0.37,0.57,0.65,1.18,0.84,1.83c0.07,0.25-0.07,0.51-0.32,0.58c-0.04,0.01-0.09,0.02-0.13,0.02
						C353.57,77.15,353.39,77.01,353.33,76.81z M342.79,73.86c-0.17-0.2-0.15-0.49,0.05-0.66c0.51-0.44,1.08-0.81,1.69-1.09
						c0.24-0.11,0.52,0,0.62,0.23c0.11,0.24,0,0.52-0.23,0.62c-0.53,0.24-1.02,0.56-1.46,0.94c-0.09,0.08-0.2,0.11-0.31,0.11
						C343.01,74.02,342.88,73.97,342.79,73.86z M351.46,73.91c-0.44-0.38-0.93-0.7-1.46-0.94c-0.24-0.11-0.34-0.39-0.23-0.62
						c0.11-0.24,0.39-0.34,0.62-0.23c0.61,0.28,1.18,0.65,1.69,1.09c0.2,0.17,0.22,0.47,0.05,0.66c-0.09,0.11-0.22,0.16-0.36,0.16
						C351.66,74.02,351.55,73.99,351.46,73.91z M346.05,72.08c-0.04-0.26,0.14-0.5,0.4-0.53c0.66-0.09,1.35-0.09,2.01,0
						c0.26,0.04,0.44,0.27,0.4,0.53c-0.04,0.26-0.27,0.44-0.53,0.4c-0.57-0.08-1.17-0.08-1.74,0c-0.02,0-0.04,0-0.07,0
						C346.29,72.48,346.08,72.31,346.05,72.08z"/>
				</g>
			</g>
		</g>
		<g>
			<g>
				<path class="st7" d="M44.58,195.2v13.78c0,1.82,1.48,3.3,3.3,3.3h25.01l7.55,2.71c0.78,0.28,1.52-0.48,1.22-1.25l-2.86-7.38
					V195.2c0-1.82-1.48-3.3-3.3-3.3H47.88C46.06,191.9,44.58,193.38,44.58,195.2z"/>
			</g>
			<g>
				<g>
					<path class="st14" d="M66.31,202.48c0,1.32,1.07,2.39,2.39,2.39c1.32,0,2.39-1.07,2.39-2.39s-1.07-2.39-2.39-2.39
						C67.38,200.09,66.31,201.16,66.31,202.48z"/>
					<circle class="st14" cx="61.15" cy="202.48" r="2.39"/>
					<circle class="st14" cx="53.59" cy="202.48" r="2.39"/>
				</g>
			</g>
		</g>
	</g>
	<g>
		<g>
			<path class="st7" d="M309.52,119.28l-9.37-3.83h-82.49c-1.33,0-2.42-1.08-2.42-2.42v-16.6c0-1.34,1.08-2.42,2.42-2.42h87.39
				c1.33,0,2.42,1.08,2.42,2.42v12.21l2.82,9.96C310.41,119.06,309.96,119.46,309.52,119.28z"/>
			<g>
				<path class="st0" d="M233.01,111.04c-0.08,0-0.15-0.02-0.22-0.07l-0.07-0.05c-0.04-0.03-0.07-0.05-0.11-0.07l-0.56-0.38
					c-1-0.69-2-1.38-2.99-2.07c-1,0.71-1.99,1.42-2.99,2.14l-0.47,0.33c-0.03,0.02-0.05,0.04-0.09,0.06l-0.05,0.03
					c-0.13,0.09-0.31,0.09-0.44,0c-0.13-0.09-0.19-0.26-0.15-0.42l0.01-0.05c0.01-0.04,0.02-0.07,0.03-0.11l0.18-0.58
					c0.33-1.09,0.67-2.17,1.01-3.26c-1.03-0.74-2.05-1.48-3.07-2.22l-0.66-0.48c-0.06-0.04-0.14-0.11-0.2-0.23
					c-0.07-0.12-0.06-0.27,0.01-0.38c0.07-0.12,0.19-0.19,0.33-0.19l0.08,0c0.06,0,0.13,0,0.19,0l1.04-0.02
					c1.13-0.03,2.26-0.05,3.39-0.08c0.34-1.11,0.68-2.22,1.02-3.32l0.28-0.92c0.05-0.15,0.19-0.26,0.35-0.27
					c0.16-0.01,0.31,0.09,0.38,0.24l0.02,0.04c0.02,0.03,0.03,0.06,0.04,0.09l0.26,0.68c0.45,1.18,0.89,2.35,1.34,3.53
					c1.11-0.02,2.22-0.04,3.33-0.06l0.82-0.01c0.07,0,0.17,0,0.29,0.03c0.15,0.04,0.26,0.16,0.28,0.3c0.03,0.15-0.03,0.3-0.15,0.39
					l-0.03,0.02c-0.02,0.02-0.05,0.03-0.07,0.05l-0.66,0.46c-0.96,0.67-1.92,1.34-2.88,2.01c0.43,1.18,0.85,2.35,1.27,3.53
					l0.23,0.65c0.01,0.03,0.02,0.06,0.03,0.1l0.02,0.05c0.05,0.16-0.01,0.33-0.14,0.42C233.17,111.01,233.09,111.04,233.01,111.04z"
					/>
				<path class="st0" d="M249.24,111.04c-0.08,0-0.15-0.02-0.22-0.07l-0.07-0.05c-0.04-0.03-0.07-0.05-0.11-0.07l-0.56-0.38
					c-1-0.69-2-1.38-2.99-2.07c-1,0.71-1.99,1.42-2.99,2.14l-0.47,0.33c-0.03,0.02-0.05,0.04-0.09,0.06l-0.05,0.03
					c-0.13,0.09-0.31,0.09-0.44,0c-0.13-0.09-0.19-0.26-0.15-0.42l0.01-0.05c0.01-0.04,0.02-0.07,0.03-0.11l0.18-0.58
					c0.33-1.09,0.67-2.17,1.01-3.26c-1.03-0.74-2.05-1.48-3.07-2.22l-0.66-0.48c-0.06-0.04-0.14-0.11-0.2-0.23
					c-0.07-0.12-0.06-0.27,0.01-0.38c0.07-0.12,0.19-0.19,0.33-0.19l0.08,0c0.06,0,0.13,0,0.19,0l1.04-0.02
					c1.13-0.03,2.26-0.05,3.39-0.08c0.34-1.11,0.68-2.22,1.02-3.32l0.29-0.92c0.05-0.15,0.19-0.26,0.35-0.27
					c0.16-0.01,0.31,0.09,0.38,0.24l0.02,0.04c0.02,0.03,0.03,0.06,0.04,0.09l0.26,0.68c0.45,1.18,0.89,2.35,1.34,3.53
					c1.11-0.02,2.22-0.04,3.33-0.06l0.82-0.01c0.07,0,0.17,0,0.29,0.03c0.15,0.04,0.26,0.16,0.28,0.3c0.03,0.15-0.03,0.3-0.15,0.39
					l-0.03,0.02c-0.02,0.02-0.05,0.03-0.07,0.05l-0.66,0.46c-0.96,0.67-1.92,1.34-2.88,2.01c0.43,1.18,0.85,2.35,1.27,3.53
					l0.23,0.65c0.01,0.03,0.02,0.06,0.03,0.1l0.02,0.05c0.05,0.16-0.01,0.33-0.14,0.42C249.41,111.01,249.33,111.04,249.24,111.04z"
					/>
				<path class="st0" d="M265.48,111.04c-0.08,0-0.15-0.02-0.22-0.07l-0.07-0.05c-0.04-0.03-0.07-0.05-0.11-0.07l-0.56-0.38
					c-1-0.69-2-1.38-2.99-2.07c-1,0.71-1.99,1.42-2.99,2.14l-0.47,0.33c-0.03,0.02-0.05,0.04-0.09,0.06l-0.05,0.03
					c-0.13,0.09-0.31,0.09-0.44,0c-0.13-0.09-0.19-0.26-0.15-0.42l0.01-0.05c0.01-0.04,0.02-0.07,0.03-0.11l0.18-0.58
					c0.33-1.09,0.67-2.17,1.01-3.26c-1.03-0.74-2.05-1.48-3.07-2.22l-0.66-0.48c-0.06-0.04-0.14-0.11-0.2-0.23
					c-0.07-0.12-0.06-0.27,0.01-0.38c0.07-0.12,0.19-0.19,0.33-0.19l0.08,0c0.06,0,0.13,0,0.19,0l1.04-0.02
					c1.13-0.03,2.26-0.05,3.39-0.08c0.34-1.11,0.68-2.22,1.02-3.32l0.29-0.92c0.05-0.15,0.19-0.26,0.35-0.27
					c0.16-0.01,0.31,0.09,0.38,0.24l0.02,0.04c0.02,0.03,0.03,0.06,0.04,0.09l0.26,0.68c0.45,1.18,0.89,2.35,1.34,3.53
					c1.11-0.02,2.22-0.04,3.33-0.06l0.82-0.01c0.07,0,0.17,0,0.29,0.03c0.15,0.04,0.26,0.16,0.28,0.3c0.03,0.15-0.03,0.3-0.15,0.39
					l-0.03,0.02c-0.02,0.02-0.05,0.03-0.07,0.05l-0.66,0.46c-0.96,0.67-1.92,1.34-2.88,2.01c0.43,1.18,0.85,2.35,1.27,3.53
					l0.23,0.65c0.01,0.03,0.02,0.06,0.03,0.1l0.02,0.05c0.05,0.16-0.01,0.33-0.14,0.42C265.65,111.01,265.56,111.04,265.48,111.04z"
					/>
				<path class="st14" d="M281.72,111.04c-0.08,0-0.15-0.02-0.22-0.07l-0.07-0.05c-0.04-0.03-0.07-0.05-0.11-0.07l-0.56-0.38
					c-1-0.69-2-1.38-2.99-2.07c-1,0.71-1.99,1.42-2.99,2.14l-0.47,0.33c-0.03,0.02-0.05,0.04-0.09,0.06l-0.05,0.03
					c-0.13,0.09-0.31,0.09-0.44,0c-0.13-0.09-0.19-0.26-0.15-0.42l0.01-0.05c0.01-0.04,0.02-0.07,0.03-0.11l0.18-0.58
					c0.33-1.09,0.67-2.17,1.01-3.26c-1.03-0.74-2.05-1.48-3.07-2.22l-0.66-0.48c-0.06-0.04-0.14-0.11-0.2-0.23
					c-0.07-0.12-0.06-0.27,0.01-0.38c0.07-0.12,0.19-0.19,0.33-0.19l0.08,0c0.06,0,0.13,0,0.19,0l1.04-0.02
					c1.13-0.03,2.26-0.05,3.39-0.08c0.34-1.11,0.68-2.22,1.02-3.32l0.29-0.92c0.05-0.15,0.19-0.26,0.35-0.27
					c0.16-0.01,0.31,0.09,0.38,0.24l0.02,0.04c0.02,0.03,0.03,0.06,0.04,0.09l0.26,0.68c0.45,1.18,0.89,2.35,1.34,3.53
					c1.11-0.02,2.22-0.04,3.33-0.06l0.82-0.01c0.07,0,0.17,0,0.29,0.03c0.15,0.04,0.26,0.16,0.28,0.3c0.03,0.15-0.03,0.3-0.15,0.39
					l-0.03,0.02c-0.02,0.02-0.05,0.03-0.07,0.05l-0.66,0.46c-0.96,0.67-1.92,1.34-2.88,2.01c0.43,1.18,0.85,2.35,1.27,3.53
					l0.23,0.65c0.01,0.03,0.02,0.06,0.03,0.1l0.02,0.05c0.05,0.16-0.01,0.33-0.14,0.42C281.88,111.01,281.8,111.04,281.72,111.04z"
					/>
				<path class="st14" d="M297.96,111.04c-0.08,0-0.15-0.02-0.22-0.07l-0.07-0.05c-0.04-0.03-0.07-0.05-0.11-0.07l-0.56-0.38
					c-1-0.69-2-1.38-2.99-2.07c-1,0.71-1.99,1.42-2.99,2.14l-0.47,0.33c-0.03,0.02-0.05,0.04-0.09,0.06l-0.05,0.03
					c-0.13,0.09-0.31,0.09-0.44,0c-0.13-0.09-0.19-0.26-0.15-0.42l0.01-0.05c0.01-0.04,0.02-0.07,0.03-0.11l0.18-0.58
					c0.33-1.09,0.67-2.17,1.01-3.26c-1.03-0.74-2.05-1.48-3.07-2.22l-0.66-0.48c-0.06-0.04-0.14-0.11-0.2-0.23
					c-0.07-0.12-0.06-0.27,0.01-0.38c0.07-0.12,0.19-0.19,0.33-0.19l0.08,0c0.06,0,0.13,0,0.19,0l1.04-0.02
					c1.13-0.03,2.26-0.05,3.39-0.08c0.34-1.11,0.68-2.22,1.02-3.32l0.29-0.92c0.05-0.15,0.19-0.26,0.35-0.27
					c0.16-0.01,0.31,0.09,0.38,0.24l0.02,0.04c0.02,0.03,0.03,0.06,0.04,0.09l0.26,0.68c0.45,1.18,0.89,2.35,1.34,3.53
					c1.11-0.02,2.22-0.04,3.33-0.06l0.82-0.01c0.07,0,0.17,0,0.29,0.03c0.15,0.04,0.26,0.16,0.28,0.3c0.03,0.15-0.03,0.3-0.15,0.39
					l-0.03,0.02c-0.02,0.02-0.05,0.03-0.07,0.05l-0.66,0.46c-0.96,0.67-1.92,1.34-2.88,2.01c0.43,1.18,0.85,2.35,1.27,3.53
					l0.23,0.65c0.01,0.03,0.02,0.06,0.03,0.1l0.02,0.05c0.05,0.16-0.01,0.33-0.14,0.42C298.12,111.01,298.04,111.04,297.96,111.04z"
					/>
			</g>
		</g>
	</g>
	<g>
		<g>
			<path class="st7" d="M81.08,431.42v-34.45c0-4.13-30.6-4.13-30.6,0v34.45C50.48,434.56,81.08,434.56,81.08,431.42z"/>
			<g>
				<path class="st14" d="M81.08,400.57v2c-3.17,0.82-8.31,1.77-15.18,1.77c-7.08,0-12.3-1.01-15.42-1.85v-2
					c2.91,0.82,8.18,1.93,15.42,1.93C72.92,402.42,78.1,401.38,81.08,400.57z"/>
			</g>
			<ellipse class="st4" cx="65.78" cy="396.61" rx="13.7" ry="1.78"/>
		</g>
		<g>
			<g>
				<g>
					<g>
						<path class="st6" d="M62.43,396.61h6.31c0.36-1.84,4.06-21.57,0.71-38.46c-3.51-17.74-14.23-28.28-20.88-20.7
							c-6.65,7.58,1.66,22.36,7.95,33.07C62.45,380.62,62.45,395.05,62.43,396.61z"/>
					</g>
				</g>
				<g>
					<path class="st12" d="M64.76,396.61h1.66c1.68-27.63-10.8-48.84-10.93-49.06c-0.24-0.39-0.75-0.52-1.14-0.29
						c-0.39,0.24-0.52,0.75-0.28,1.14C54.2,348.62,66.45,369.47,64.76,396.61z"/>
				</g>
			</g>
			<g>
				<g>
					<g>
						<path class="st6" d="M91.57,342.25c-14.25,0-22.32,43.43-21.27,54.68h6.07c0.5-2.86,2.86-10.47,13.57-27.79
							C94.95,361.04,106.27,342.25,91.57,342.25z"/>
					</g>
				</g>
				<g>
					<path class="st12" d="M89.07,354.32c-0.4-0.23-0.91-0.09-1.14,0.31c-0.13,0.24-12.23,21.8-15.13,42.29h1.68
						c2.91-20.07,14.77-41.24,14.91-41.47C89.61,355.06,89.47,354.55,89.07,354.32z"/>
				</g>
			</g>
			<g>
				<g>
					<path class="st6" d="M61.49,396.92c0.24-8.03-10.96-40.66-20.52-38.3c-10.44,2.58,0.95,17.94,5.22,23.65
						c6.81,9.1,9.45,12.99,10.45,14.65H61.49z"/>
				</g>
				<g>
					<path class="st12" d="M59.69,396.92c-3.24-13.51-14.86-29.18-15.39-29.89c-0.28-0.37-0.8-0.44-1.16-0.17
						c-0.37,0.28-0.44,0.8-0.17,1.16c0.13,0.17,11.68,15.77,15,28.9H59.69z"/>
				</g>
			</g>
		</g>
	</g>
</g>
<g id="DESIGNED_BY_FREEPIK">
</g>
</svg>
